<svg enable-background="new 0 0 36 36" viewBox="0 0 36 36" xmlns="http://www.w3.org/2000/svg"><path d="m0 0h36v36h-36z" fill="none"/><path d="m35.4 27.2v-18.4c0-1.3-1.1-2.4-2.4-2.4h-30c-1.4 0-2.4 1.1-2.4 2.4v18.4c0 1.4 1.1 2.4 2.4 2.4h30c1.3 0 2.4-1.1 2.4-2.4z" fill="#259245"/><path d="m32.9 30.2h-29.8c-1.7 0-3.1-1.4-3.1-3.1v-18.2c0-1.7 1.4-3.1 3.1-3.1h29.9c1.7 0 3.1 1.4 3.1 3.1v18.2c-.1 1.7-1.5 3.1-3.2 3.1zm-29.8-23.2c-1.1 0-1.9.8-1.9 1.9v18.2c0 1.1.8 1.9 1.9 1.9h29.9c1.1 0 1.9-.9 1.9-1.9v-18.2c-.1-1.1-.9-1.9-2-1.9z" fill="#212121"/><g fill="#f5f5f5"><path d="m7.4 14c.1.4.3.5.5.5s.5-.2.5-.5v-1.3c0-.1.1-.1.1-.1s.1.1.1.1v1.3c0 .2.1.3.2.4.2.1.2.1.3.1h.2.1c0 1.1-.1 2.1-.1 2.1 0 .1.1.3.2.3.1 0 .2-.1.2-.2s.1-1.2.1-2.4h.1.2c.3.1.6.1.8-.1.2-.2.3-.5.2-.8l-.1-.7c.1 0 .2 0 .3-.1s0-.3-.1-.3l-.5-.3c-.1 0-.2 0-.3 0-.1.1-.1.2-.1.3l.4 1.2c0 .1 0 .2-.1.3-.1.1-.2.1-.2 0-.2-.1-.3-.1-.5 0 0-.8-.1-1.6-.3-2.1 0-.1-.2-.2-.3-.2s-.2.2-.2.3c.2.5.3 1.3.3 2.1l-.3.1v-1.4c0-.3-.3-.6-.6-.6s-.6.3-.6.6v1.2l-.3-1.2c0-.1-.2-.2-.3-.2s-.2.2-.2.3z"/><path d="m7.9 12c.1 0 .2-.1.2-.2v-.2c0-.1-.1-.2-.2-.2s-.2.1-.2.2v.2s.1.2.2.2z"/><path d="m10.4 11.7h.2c.1 0 .2-.1.2-.2s-.1-.2-.2-.2h-.2c-.1 0-.2.1-.2.2-.1.1 0 .2.2.2z"/><path d="m8.8 14.9-1.2.7c-.1.1-.2.2-.1.3 0 .1.1.1.2.1h.1l1.2-.7c.1-.1.2-.2.1-.3s-.2-.1-.3-.1z"/><path d="m12.1 15.4c0 .1.1.2.1.2.1.1.2.2.4.2s.4-.1.5-.3c.1.1.3.1.4 0 .4-.2.4-.6.4-.9 0-.1-.1-.2-.3-.2-.1 0-.2.1-.2.3 0 0 0 .3-.2.4 0 0-.1-.1-.1-.2s-.1-.2-.3-.2c-.1 0-.2.1-.2.2 0 0 0 .4-.3.4 0 0 0-.2 0-.3s0-.2-.1-.3-.2-.1-.3 0l-.1.1c-.1-1.4-.2-3.1-.2-3.1 0-.1-.1-.2-.3-.2-.1 0-.2.1-.2.3 0 0 .2 1.9.2 3.4-.1-.2-.3-.4-.5-.4-.4 0-.7.2-.9.5-.1.3 0 .6.2.7s.4.1.7 0c-.1.3-.2.5-.4.8-.2.2-.4.4-.8.4-.2 0-.4-.1-.5-.2-.3-.3-.3-.9-.3-.9 0-.1-.1-.3-.2-.3s-.3.1-.3.2c0 0 0 .8.4 1.2.2.2.5.4.8.4.4 0 .8-.2 1.1-.6.3-.3.5-.8.6-1.3 0 .8-.5 1.8-1.2 2.2-.3.2-.7.3-1.2.1-.6-.3-.5-1-.5-1 0-.1-.1-.3-.2-.3s-.3.1-.3.2c0 0-.1 1.1.8 1.5.2.1.5.2.7.2.3 0 .6-.1 1-.3.8-.5 1.4-1.6 1.4-2.6.4 0 .4-.2.4-.3zm-1.5.2v-.1c0-.1.2-.2.3-.2s.1 0 .1.2v.1c-.2 0-.3.1-.4 0z"/><path d="m8 17.9c-.1-.1-.3 0-.3.1v.1c-.1-.3 0-.7 0-.8s0-.3-.2-.3-.3 0-.3.2c0 .1-.2.7 0 1.1.1.3.3.4.4.4.3 0 .4-.3.5-.4.1-.2.1-.4-.1-.4z"/><path d="m12.6 13.4h.1l1.2-1c.2-.1.3-.3.3-.5 0-.3-.3-.6-.6-.6s-.6.3-.6.6c0 .2.1.4.2.5l-.8.6c-.1.1-.1.2 0 .3 0 .1.1.1.2.1zm1.1-1.7c.1 0 .1.1.1.1 0 .1-.1.1-.1.1s-.1-.1-.1-.1c-.1 0 0-.1.1-.1z"/><path d="m13.4 13.2c-.1 0-.3 0-.3.2 0 .1-.1.5.1.7.1.1.2.1.4.1.1 0 .2 0 .3-.1.1 0 .2-.2.2-.3s-.2-.2-.3-.2-.2 0-.2 0 0-.1 0-.2c0 0-.1-.2-.2-.2z"/><path d="m16.2 12.2c.2 0 .3-.1.3-.2l.1-.5c0-.1 0-.3-.2-.3-.1 0-.3 0-.3.2l-.1.5c0 .1.1.2.2.3z"/><path d="m14.8 12.2h.1c.1 0 .2 0 .2-.1.1-.1 0-.3-.1-.3v-.1c0-.1 0-.1.1-.2.1 0 .2-.2.2-.3s-.2-.2-.3-.2c-.2.1-.4.3-.4.6-.2.2 0 .4.2.6z"/><path d="m12.8 16.1c-.1 0-.2.1-.2.2s.1.2.2.2v.2c0 .1.1.2.2.2s.2-.1.2-.2c.1-.6-.4-.6-.4-.6z"/><path d="m17 15.1c.3 0 .5-.1.7-.3.1-.1.1-.3 0-.3-.1-.1-.3-.1-.3 0-.1.1-.2.1-.2.1s-.1-.1-.1-.1c-.1-.1-.2-.2-.3-.1s-.2.2-.1.3c-.2.1 0 .4.3.4z"/><path d="m21.1 13.4c0-.1-.2-.2-.3-.2s-.2.2-.2.3.1.3.4.4h.1c.2 0 .3-.1.5-.3.1-.1 0-.3-.1-.3-.1-.1-.3-.1-.4.1.1-.1 0 0 0 0z"/><path d="m20.6 17.8c0-1 0-2-.1-2.9.3.6.7 1.2.9 1.7 0 .1.1.2.2.2h.1c.1 0 .2-.2.1-.3-.3-.8-.9-1.8-1.4-2.7-.1-1.3-.3-2.2-.3-2.2 0-.1-.2-.2-.3-.2s-.2.2-.2.3c0 0 .1.4.2 1.2-.2-.3-.4-.5-.5-.7.1 0 .3 0 .3-.2 0-.1 0-.3-.2-.3l-.7-.2c-.1 0-.2 0-.3.1v.1c-.1-.1-.3-.2-.5-.1-.1 0-.2.2-.2.4s.1.4.2.7c.1.4.2.7.1.9-.1.1-.2.1-.3.1s-.3-.2-.4-.5c0-.4 0-.8-.1-1.4 0-.1-.2-.2-.3-.2s-.2.2-.2.3c.2.8.1 1.4-.1 1.7-.1.1-.2.2-.4.2 0 0-.1 0-.1-.1-.2-.2-.2-.9-.1-1.4 0-.1 0-.1-.1-.2 0-.1-.1-.1-.2-.1-.4 0-.6.5-.7.9-.1.2-.2.5-.3.6-.1 0-.2-.4-.2-.7 0-.1-.1-.2-.2-.2-.1 0-.2.1-.2.2 0 .6.2 1.2.7 1.2.4 0 .6-.4.7-.9 0 .3.1.7.3.9.1.1.3.2.5.2.3 0 .6-.1.7-.3 0 0 .1-.1.1-.1.1.2.3.3.5.4h.2c.2 0 .4-.1.5-.2 0 0 .1-.1.1-.1h.2c.2 0 .4-.1.5-.2s.1-.2.1-.3-.2-.1-.3-.1c0 0-.2.1-.3.1 0-.3-.1-.6-.2-.8 0-.1-.1-.3-.1-.4h.1c.1.1.3.1.3 0 0 0 0 0 0-.1.3.4.8 1.1 1.3 1.9.1 1 .2 2.4.2 3.8 0 .1.1.2.2.2.1.1.2 0 .2-.2z"/><path d="m20.9 12.4c0 .1.1.2.2.2s.2-.1.2-.2c0-.3-.2-.8-.3-.8-.1-.1-.2-.2-.3-.1s-.2.2-.1.3c.2.2.3.5.3.6z"/><path d="m19.8 17.9c-.1-.1-.3 0-.3.1 0 0-.1.1-.1.1 0-.1 0-.3.1-.4 0-.1 0-.2-.1-.3s-.2 0-.3 0l-.5.5c-.1.1-.1.3 0 .3.1.1.3.1.3 0 0 .1.1.2.1.3.1.1.2.1.3.1h.1c.3 0 .5-.4.5-.4 0-.1 0-.3-.1-.3z"/><path d="m19.7 15.9h-1.7c0-.1 0-.1 0-.2.7-.1 1.1-.4 1.2-.7 0-.1.1-.3-.1-.5s-.4-.3-.6-.3c-.3.1-.7.4-.9 1-.7.1-1.1.4-1.4.6-.1-1-.5-1.6-.5-1.6-.1-.1-.2-.1-.3-.1-.1.1-.1.2-.1.3 0 0 .4.7.4 1.8s-.9 2-1.5 2c-.3 0-.4-.3-.4-.6.6-.4 1.1-.9 1.2-1.3.1-.6 0-1-.2-1.3.1.1.3.1.3 0 .1-.1.1-.3 0-.3-.1-.1-.4-.4-.7-.3-.1 0-.2.2-.2.4 0 .1.1.3.1.4.1.3.2.6.1 1-.1.3-.4.6-.8.9 0-.1-.1-.1-.2-.1-.1 0-.2.1-.2.2v.1c-.5.3-1.1.7-1.6.9-.1.1-.2.2-.1.3 0 .1.1.1.2.1h.1c.1-.1.8-.4 1.5-.8.1.4.4.8.9.8.6 0 1.3-.5 1.6-1.2 0 .1.1.2.2.2.6.7 1.8.7 1.9.7s.2-.1.2-.2-.1-.2-.2-.3c0 0-.2 0-.3-.1s-.1-.2-.1-.3c0-.3 1-.5 1.9-.5.1 0 .2-.1.2-.2l.2-.7c0-.1 0-.2 0-.2 0 .1 0 .1-.1.1zm-1.1-1.2s.1 0 .1.1v.1c0 .1-.2.2-.5.3.2-.4.3-.5.4-.5zm-1.5 3.2c-.2-.1-.5-.2-.7-.4s-.3-.5-.2-.9v-.1c.3 0 1.3.1 1.3.4-.3.1-.5.4-.5.6.1.2.1.3.1.4z"/><path d="m22.3 12.4-.2-.7c0-.1-.2-.2-.3-.2s-.2.1-.2.3c.2 1.7.5 5 .5 5.4 0 .3-.6 1-1.6 1.5-.1.1-.2.2-.1.3 0 .1.1.1.2.1h.1c.9-.4 1.8-1.2 1.8-1.9 0-.4-.3-3-.4-4.4.2-.2.3-.3.2-.4z"/><path d="m24.4 14.6s.1.1.2.1h.1c.1-.1.1-.2.1-.3 0-.2-.1-.4 0-.5.1 0 .2-.1.3-.2 0-.1-.1-.3-.2-.3-.2 0-.3 0-.4.1s-.1.2-.1.3l-.4-.3c-.1-.1-.3-.1-.3 0-.1.1-.1.3 0 .3z"/><path d="m24.9 14.8-.9.7c-.1.1-.1.2-.1.3s.1.1.2.1h.1l.9-.7c.1-.1.1-.2.1-.3s-.2-.1-.3-.1z"/><path d="m24.9 15.8c-.1.1-.1.2 0 .3 0 0 .1.1 0 .4 0 .1.1.2.2.3.1 0 .2-.1.2-.2 0-.5-.1-.7-.2-.7 0-.3-.2-.3-.2-.1z"/><path d="m27 17.6c.1 0 .2-.1.2-.2 0-.4 0-.8 0-1.2.2.4.4.8.6 1.1 0 .1.1.1.2.1h.1c.1-.1.2-.2.1-.3-.2-.5-.6-1.2-1.1-1.9-.1-.9-.2-1.8-.3-2.4h.2c.1 0 .1-.1.1-.2v.1s.2.3.1.6c0 .1.1.3.2.3.1 0 .2-.1.2-.2.1-.5-.1-.9-.2-1s-.2-.1-.3-.1-.1.1-.1.2c0 0 0 0 0-.1l-.4-.6c-.1-.1-.2-.1-.3-.1s-.2.2-.2.3c0 0 .2 1.1.4 2.4-.2-.3-.4-.5-.6-.8 0-.4-.1-.7-.1-1 .1-.1.2-.2.1-.3l-.2-.5c-.1-.1-.2-.2-.3-.1-.1 0-.2.1-.2.3 0 .3.1.6.1 1-.2-.2-.3-.4-.4-.5 0 0 0 0 .1-.1s0-.3-.1-.3l-.5-.2c-.1 0-.2 0-.3.1s-.1.2 0 .3c0 0 .6.8 1.3 1.7.1 1.6.2 3.3.1 3.6 0 .1-.1.1-.1.1-.1 0-.5-.3-.7-.7-.1-.2-.2-.2-.3-.2-.3 0-.4.3-.6.8-.1.4-.3.8-.5 1-.1-.1-.2-.5-.3-1 0 .1.1.2.2.2s.2-.1.2-.2c0-.4-.3-3.1-.4-4.7.1 0 .2-.2.1-.3l-.2-.7c0-.1-.2-.2-.3-.2s-.2.1-.2.3c.2 1.7.5 5.1.5 5.6 0-.1-.1-.2-.3-.2-.1 0-.2.1-.2.3.1.5.3 1.4.7 1.5h.1c.1 0 .2 0 .3-.2.3-.3.4-.8.6-1.2 0-.1.1-.2.1-.3.2.3.6.7 1 .7.1 0 .4-.1.5-.5s.1-1.8 0-3.1c.2.3.4.6.6.9.1.7.1 1.5.1 2.1.3-.2.5 0 .6 0z"/><path d="m28.8 16.3c-.2-1.3-.4-2.8-.6-3.7h.2c.1-.1.1-.2 0-.3l-.4-.6c-.1-.1-.2-.1-.3-.1s-.2.2-.1.3c0 0 .4 2.5.7 4.5.1.8 0 1.5-.4 1.8-.2.2-.5.4-.9.3-.1 0-.3.1-.3.2s.1.3.2.3h.1c.5 0 .9-.2 1.2-.5.6-.5.8-1.3.6-2.2z"/><path d="m26.2 17.9c-.1.1-.1.3 0 .3v.1c-.1.1-.1.3 0 .3 0 0 .1.1.2.1s.1 0 .2-.1c.2-.2.2-.3.2-.4 0-.2-.2-.4-.2-.4-.2 0-.4 0-.4.1z"/><path d="m26.4 22.2h-.3-1.8v-.3c0-.2-.1-.3-.3-.3s-.3.1-.3.3v.3h-14.8c-.2 0-.3.3-.1.4.6.3 1.4.5 2.1.5h12.9v.6c0 .2.1.3.3.3h2.4c.5 0 .9-.4.9-1-.1-.5-.5-.8-1-.8zm0 1.1h-2v-.3h2.3v-.2c0 .1.1.1 0 .2 0 .3-.1.3-.3.3z"/></g></svg>