<svg enable-background="new 0 0 48 48" viewBox="0 0 48 48" xmlns="http://www.w3.org/2000/svg"><path d="m0 0h48v48h-48z" fill="none"/><path d="m39.1 24c0 1.5 1.3 2.8 2.8 2.8v17.7c0 1.5-1.3 2.8-2.8 2.8h-30.2c-1.5 0-2.8-1.3-2.8-2.8v-17.7c1.5 0 2.8-1.3 2.8-2.8s-1.3-2.8-2.8-2.8v-17.7c0-1.5 1.3-2.8 2.8-2.8h30.2c1.5 0 2.8 1.3 2.8 2.8v17.7c-1.5 0-2.8 1.3-2.8 2.8z" fill="#e7e7f2"/><path d="m41.9 21.2v-17.7c0-1.5-1.3-2.8-2.8-2.8h-2c1.3 0 2.4 1.3 2.4 2.8v17.7c-1.3 0-2.4 1.3-2.4 2.8s1 2.8 2.4 2.8v17.7c0 1.5-1 2.8-2.4 2.8h2c1.5 0 2.8-1.3 2.8-2.8v-17.7c-1.5 0-2.8-1.3-2.8-2.8s1.3-2.8 2.8-2.8z" fill="#bcbcce"/><path d="m14.8 13.1 4.9-2.8c1.1-.6 1.5-2.1.9-3.1-.6-1.1-2.1-1.5-3.1-.9l-4.9 2.8c-1.1.6-1.5 2.1-.9 3.1.6 1.2 2 1.5 3.1.9z" fill="#83dda7"/><path d="m17.4 6.4-2.4 1.4 2.3 3.9 2.4-1.5c1.1-.6 1.5-2.1.9-3.1-.7-.9-2.1-1.4-3.2-.7z" fill="#e36f91"/><path d="m14.8 22.6 4.9-2.8c1.1-.6 1.5-2.1.9-3.1-.6-1.1-2.1-1.5-3.1-.9l-4.9 2.8c-1.1.6-1.5 2.1-.9 3.1.6 1.2 2 1.5 3.1.9z" fill="#83dda7"/><path d="m17.4 15.9-2.4 1.3 2.3 3.9 2.4-1.4c1.1-.6 1.5-2.1.9-3.1-.7-1-2.1-1.3-3.2-.7z" fill="#e36f91"/><path d="m14.8 32.1 4.9-2.8c1.1-.6 1.5-2.1.9-3.1-.6-1.1-2.1-1.5-3.1-.9l-4.9 2.8c-1.1.6-1.5 2.1-.9 3.1.6 1.2 2 1.5 3.1.9z" fill="#83dda7"/><path d="m17.4 25.4-2.4 1.3 2.3 3.9 2.4-1.4c1.1-.6 1.5-2.1.9-3.1-.7-1-2.1-1.3-3.2-.7z" fill="#e36f91"/><path d="m14.8 41.6 4.9-2.8c1.1-.6 1.5-2.1.9-3.1-.6-1.1-2.1-1.5-3.1-.9l-4.9 2.9c-1.1.6-1.5 2.1-.9 3.1.6 1 2 1.5 3.1.8z" fill="#83dda7"/><path d="m17.4 34.9-2.4 1.4 2.3 3.9 2.4-1.4c1.1-.6 1.5-2.1.9-3.1-.7-1.1-2.1-1.4-3.2-.8z" fill="#e36f91"/><path d="m30.6 13.1 4.9-2.8c1.1-.6 1.5-2.1.9-3.1-.6-1.1-2.1-1.5-3.1-.9l-5 2.8c-1.1.6-1.5 2.1-.9 3.1.7 1.2 2.1 1.5 3.2.9z" fill="#83dda7"/><path d="m33.2 6.4-2.4 1.4 2.3 3.9 2.4-1.4c1.1-.6 1.5-2.1.9-3.1-.7-1-2.1-1.5-3.2-.8z" fill="#e36f91"/><path d="m30.6 22.6 4.9-2.8c1.1-.6 1.5-2.1.9-3.1-.6-1.1-2.1-1.5-3.1-.9l-5 2.8c-1.1.6-1.5 2.1-.9 3.1.7 1.2 2.1 1.5 3.2.9z" fill="#83dda7"/><path d="m33.2 15.9-2.4 1.4 2.3 3.9 2.4-1.4c1.1-.6 1.5-2.1.9-3.1-.7-1.1-2.1-1.4-3.2-.8z" fill="#e36f91"/><path d="m30.6 32.1 4.9-2.8c1.1-.6 1.5-2.1.9-3.1-.6-1.1-2.1-1.5-3.1-.9l-5 2.8c-1.1.6-1.5 2.1-.9 3.1.7 1.2 2.1 1.5 3.2.9z" fill="#83dda7"/><path d="m33.2 25.4-2.4 1.4 2.3 3.9 2.4-1.4c1.1-.6 1.5-2.1.9-3.1-.7-1.1-2.1-1.4-3.2-.8z" fill="#e36f91"/><path d="m30.6 41.6 4.9-2.8c1.1-.6 1.5-2.1.9-3.1-.6-1.1-2.1-1.5-3.1-.9l-5 2.9c-1.1.6-1.5 2.1-.9 3.1.7 1 2.1 1.5 3.2.8z" fill="#83dda7"/><path d="m33.2 34.9-2.4 1.4 2.3 3.9 2.4-1.4c1.1-.6 1.5-2.1.9-3.1-.7-1.1-2.1-1.4-3.2-.8z" fill="#e36f91"/><g fill="#212121"><path d="m41.9 21.9c.4 0 .7-.3.7-.7v-17.7c0-2-1.5-3.5-3.5-3.5h-30.2c-2 0-3.5 1.5-3.5 3.5v4.3c0 .4.3.7.7.7s.7-.3.7-.7v-4.3c0-1.2.9-2.1 2.1-2.1h30.2c1.2 0 2.1.9 2.1 2.1v17.1c-1.6.3-2.8 1.7-2.8 3.4s1.2 3.1 2.8 3.4v9.9c0 .4.3.7.7.7.3 0 .7-.3.7-.7v-10.5c0-.4-.3-.7-.7-.7-1.2 0-2.1-.9-2.1-2.1s.9-2.1 2.1-2.1z"/><path d="m41.9 39.5c-.4 0-.7.3-.7.7v4.3c0 1.2-.9 2.1-2.1 2.1h-30.2c-1.2 0-2.1-.9-2.1-2.1v-17.1c1.6-.3 2.8-1.7 2.8-3.4s-1.2-3.1-2.8-3.4v-10c0-.4-.3-.7-.7-.7s-.7.3-.7.7v10.6c0 .4.3.7.7.7 1.2 0 2.1.9 2.1 2.1s-.9 2.1-2.1 2.1c-.4 0-.7.3-.7.7v17.7c0 2 1.5 3.5 3.5 3.5h30.2c2 0 3.5-1.5 3.5-3.5v-4.3c0-.3-.3-.7-.7-.7z"/><path d="m24.7 39.3v-30.6c0-.5-.4-.7-.7-.7-.4 0-.7.3-.7.7v30.6c0 .4.3.7.7.7s.7-.3.7-.7z"/><path d="m12.9 14.1c.3.1.5.1.8.1.5 0 1-.2 1.5-.4l2.4-1.4 2.4-1.4c.1 0 .1-.1.2-.1l.1-.1c.5-.4.9-.9 1.1-1.6s.1-1.4-.2-2 0-.1-.1-.1c0-.1-.1-.1-.1-.2s-.1-.1-.1-.2l-.1-.1c-.4-.5-.9-.9-1.6-1.1s-1.4-.1-2 .2-.1 0-.1.1c-.1 0-.1.1-.2.1l-2.4 1.4-2.4 1.3c-.7.4-1.2 1-1.4 1.8s-.1 1.5.3 2.2c.5.8 1.2 1.2 1.9 1.5zm4.8-7.1c.3-.1.3-.1.4-.1h.1.2.1.2.1.2.1s.1 0 .1.1.1 0 .1.1l.1.1.1.1.1.1.1.1.1.1c0 .1.1.1.1.2s0 .1.1.1c.2.6 0 1.3-.4 1.6l-.1.1s-.1.1-.2.1l-1.8 1-1.5-2.7zm-5.5 3.7c.1-.4.3-.8.8-.9l1.8-1 1.5 2.7-1.8 1c-.3.2-.8.3-1.2.2s-.8-.3-.9-.8c-.2-.3-.3-.8-.2-1.2z"/><path d="m11.1 22.1c.4.7 1 1.2 1.8 1.4.3.1.5.1.8.1.5 0 1-.2 1.5-.4l4.9-2.8c.7-.3 1.1-.9 1.4-1.6 0-.1 0-.1 0-.2.2-.8.1-1.5-.3-2.2s-1-1.2-1.8-1.4-1.5-.1-2.2.3l-2.4 1.4-2.4 1.4c-.7.4-1.2 1-1.4 1.8-.4.8-.3 1.5.1 2.2zm6.8-5.6c.1-.1.2-.1.3-.1h.3.3.2c.4.1.8.3.9.8.4.8.2 1.7-.6 2.1l-1.8 1-1.5-2.7 1.8-1c0-.1 0-.1.1-.1zm-5.7 3.7c.1-.4.3-.8.8-.9l1.8-1 1.5 2.7-1.8 1c-.3.2-.8.3-1.2.2s-.8-.3-.9-.8c-.2-.3-.3-.7-.2-1.2z"/><path d="m11.1 31.6c.4.7 1 1.2 1.8 1.4.3.1.5.1.8.1.5 0 1-.2 1.5-.4l2.4-1.4 2.4-1.4c.7-.3 1.1-.9 1.4-1.6 0-.1 0-.1 0-.2.2-.8.1-1.5-.3-2.2s-1-1.2-1.8-1.4-1.5-.1-2.2.3l-4.9 2.8c-.7.4-1.2 1-1.4 1.8s-.1 1.5.3 2.2zm8.8-5c0 .1.1.1.1.2s0 .1.1.1c.2.6 0 1.3-.4 1.6l-.1.1s-.1.1-.2.1l-1.8 1-1.6-2.8 1.8-1 .1-.1s.1 0 .1-.1h.1.1.1.2.2.2c.5.3.8.5 1 .9zm-7 2.2 1.8-1 1.5 2.7-1.8 1c-.3.2-.8.3-1.2.2s-.8-.3-.9-.8c-.4-.7-.1-1.7.6-2.1z"/><path d="m11.1 41.1c.5.9 1.5 1.5 2.6 1.5.5 0 1-.1 1.5-.4l2.4-1.4 2.4-1.4c.7-.4 1.2-1 1.4-1.8s.1-1.5-.3-2.2-1-1.2-1.8-1.4-1.5-.1-2.2.3l-2.4 1.4-2.4 1.3c-.7.4-1.2 1-1.4 1.8-.3.8-.2 1.7.2 2.3zm6.8-5.7c.1-.1.2-.1.3-.1h.3.3.2c.4.1.8.3.9.8.2.3.3.8.2 1.2s-.3.8-.8.9l-1.8 1-1.5-2.7 1.8-1s0-.1.1-.1zm-5.7 3.9c.1-.4.3-.8.8-.9l1.8-1 1.5 2.7-1.8 1c-.8.4-1.7.2-2.1-.6-.2-.5-.3-.9-.2-1.2z"/><path d="m28.7 14.1c.3.1.5.1.8.1.5 0 1-.2 1.5-.4l2.4-1.4 2.4-1.4c.1 0 .1-.1.2-.1l.1-.1c.5-.4.9-.9 1.1-1.6s.1-1.4-.2-2 0-.1-.1-.1c0-.1-.1-.1-.1-.2.1-.1.1-.2 0-.2l-.1-.1c-.4-.5-.9-.9-1.6-1.1s-1.4-.1-2 .2-.1 0-.1.1c-.1 0-.1.1-.2.1l-2.4 1.4-2.5 1.3c-.7.4-1.2 1-1.4 1.8s-.1 1.5.3 2.2c.5.8 1.1 1.2 1.9 1.5zm4.8-7.1c.2-.1.2-.1.3-.2h.1.2.1.2.1.2.1s.1 0 .1.1.1 0 .1.1l.1.1-.1.1.1.1.1.1.1.1c0 .1.1.1.1.2s0 .1.1.1c.2.6 0 1.3-.4 1.6l-.1.1s-.1.1-.2.1l-1.8 1-1.2-2.5zm-5.6 3.7c.1-.4.3-.8.8-.9l1.8-1 1.5 2.7-1.8 1c-.3.2-.8.3-1.2.2s-.8-.3-.9-.8c-.2-.3-.2-.8-.2-1.2z"/><path d="m26.9 22.1c.4.7 1 1.2 1.8 1.4.3.1.5.1.8.1.5 0 1-.2 1.5-.4l4.9-2.8c.7-.3 1.1-.9 1.4-1.6 0-.1 0-.1 0-.2.2-.8.1-1.5-.3-2.2s-1-1.2-1.8-1.4-1.5-.1-2.2.3l-2.4 1.4-2.4 1.4c-.7.4-1.2 1-1.4 1.8-.4.8-.3 1.5.1 2.2zm6.7-5.6c.1 0 .1 0 0 0 .1-.1.2-.1.3-.1h.3.3.2c.4.1.8.3.9.8.4.8.2 1.7-.6 2.1l-1.8 1-1.4-2.7 1.8-1.1c-.1 0 0 0 0 0zm-5.7 3.7c.1-.4.3-.8.8-.9l1.8-1 1.5 2.7-1.8 1c-.3.2-.8.3-1.2.2s-.8-.3-.9-.8c-.2-.3-.2-.7-.2-1.2z"/><path d="m26.9 31.6c.4.7 1 1.2 1.8 1.4.3.1.5.1.8.1.5 0 1-.2 1.5-.4l2.4-1.4 2.4-1.4c.7-.3 1.1-.9 1.4-1.6 0-.1 0-.1 0-.2.2-.8.1-1.5-.3-2.2s-1-1.2-1.8-1.4-1.5-.1-2.2.3l-4.9 2.8c-.7.4-1.2 1-1.4 1.8s-.1 1.5.3 2.2zm8.8-5c0 .1.1.1.1.2s0 .1.1.1c.2.6 0 1.3-.4 1.6l-.1.1s-.1.1-.2.1l-1.8 1-1.7-2.7 1.8-1 .1-.1s.1 0 .1-.1h.1.1.1.2.2.2c.5.2.9.4 1.1.8zm-7.1 2.2 1.8-1 1.5 2.7-1.8 1c-.3.2-.8.3-1.2.2s-.8-.3-.9-.8c-.3-.7-.1-1.7.6-2.1z"/><path d="m26.9 41.1c.5.9 1.5 1.5 2.6 1.5.5 0 1-.1 1.5-.4l2.4-1.4 2.4-1.4c.7-.4 1.2-1 1.4-1.8s.1-1.5-.3-2.2-1-1.2-1.8-1.4-1.5-.1-2.2.3l-2.4 1.4-2.5 1.3c-.7.4-1.2 1-1.4 1.8s-.1 1.7.3 2.3zm6.7-5.7c.1 0 .1 0 0 0 .1-.1.2-.1.3-.1h.3.3.2c.4.1.8.3.9.8.2.3.3.8.2 1.2s-.3.8-.8.9l-1.8 1-1.4-2.7 1.8-1.1c-.1.1 0 0 0 0zm-5.7 3.9c.1-.4.3-.8.8-.9l1.8-1 1.5 2.7-1.8 1c-.8.4-1.7.2-2.1-.6-.2-.5-.2-.9-.2-1.2z"/></g></svg>