<svg enable-background="new 0 0 24 24" viewBox="0 0 24 24" xmlns="http://www.w3.org/2000/svg"><path d="m0 0h24v24h-24z" fill="none"/><path d="m20.3 23.7h-16.5c-1.1 0-2-.9-2-2v-16.4c0-1.1.9-2 2-2h16.5c1.1 0 2 .9 2 2v16.4c0 1.1-.9 2-2 2z" fill="#f8f8f8"/><path d="m20.3 3.4h-1.9c1.1 0 2 .9 2 2v16.4c0 1.1-.9 2-2 2h1.9c1.1 0 2-.9 2-2v-16.5c0-1.1-.9-1.9-2-1.9z" fill="#e1e1e4"/><path d="m22.3 9.5h-20.6v-4.2c0-1.1.9-2 2-2h16.6c1.1 0 2 .9 2 2z" fill="#d6d6d6"/><path d="m18.4 3.4h1.9c1.1 0 2 .9 2 2v4.3h-1.9v-4.4c-.1-1.1-1-1.9-2-1.9z" fill="#ccc"/><path d="m6.8 6c-.6 0-1.2-.5-1.2-1.2v-3.3c0-.7.5-1.2 1.2-1.2.7 0 1.2.5 1.2 1.2v3.3c0 .7-.5 1.2-1.2 1.2z" fill="#f8f8f8"/><path d="m17 6c-.7 0-1.2-.5-1.2-1.2v-3.3c0-.7.5-1.2 1.2-1.2.7 0 1.2.5 1.2 1.2v3.3c0 .7-.6 1.2-1.2 1.2z" fill="#f8f8f8"/><path d="m3.8 8.4c-.2 0-.3-.1-.3-.3v-1.3c0-.2.1-.3.3-.3s.3.1.3.3v1.3c0 .2-.1.3-.3.3z" fill="#fff"/><path d="m3.8 5.6c-.2 0-.3-.2-.3-.3s.1-.3.3-.3.3.2.3.3c0 .2-.1.3-.3.3z" fill="#fff"/><g fill="#777"><path d="m3.8 24c-1.3 0-2.3-1-2.3-2.3v-3.7c0-.2.1-.3.3-.3s.2.1.2.3v3.7c0 .9.7 1.7 1.7 1.7h16.5c.9 0 1.7-.7 1.7-1.7v-4.9c0-.2.1-.3.3-.3s.3.1.3.3v4.9c0 1.3-1 2.3-2.3 2.3z"/><path d="m22.3 13.3c-.2 0-.3-.1-.3-.3v-.4c0-.2.1-.3.3-.3s.3.1.3.3v.4c0 .2-.2.3-.3.3z"/><path d="m9.9 19.3c-.5 0-1.1-.2-1.5-.7-.1-.1-.1-.2-.1-.3s.1-.2.1-.3c.1-.1.2-.1.3-.1s.2 0 .3.1c.2.2.6.4 1 .4s.7-.1 1-.4c.2-.2.4-.6.4-1s-.1-.7-.4-1c-.2-.2-.6-.4-1-.4-.1 0-.2-.1-.2-.1h-.2c-.1-.1-.1-.4 0-.5l1.2-1.2h-1.9c-.2 0-.4-.2-.4-.4s.2-.4.4-.4h2.8c.2 0 .4.2.4.4 0 .1 0 .1-.1.2 0 .1-.1.1-.1.1l-1.2 1.3.2.1c.2.1.4.2.6.4.4.4.7 1 .7 1.5 0 .6-.2 1.1-.7 1.6-.5.4-1 .7-1.6.7z"/><path d="m15.1 19.3c-.2 0-.4-.2-.4-.4v-4.8l-.6.4c-.1.1-.1.1-.2.1s-.2-.1-.3-.2c-.1-.1-.1-.2-.1-.2 0-.1.1-.2.2-.2l1.1-.7h.2.1c.2 0 .4.2.4.4v5.5c0-.1-.2.1-.4.1z"/><path d="m1.7 15.1c-.2 0-.3-.1-.3-.3v-9.5c0-1.3 1-2.3 2.3-2.3h1.7v-1.5c.1-.8.7-1.5 1.6-1.5.8 0 1.4.7 1.4 1.5v1.5h7.2v-1.5c0-.8.7-1.5 1.5-1.5s1.5.7 1.5 1.5v1.5h1.7c.6 0 1.2.2 1.6.7s.7 1 .7 1.6v5c0 .2-.1.3-.3.3s-.3-.1-.3-.3v-.5h-19.9v4.9c0 .3-.2.4-.4.4zm2.1-11.4c-.9 0-1.7.7-1.7 1.7v3.9h19.9v-4c0-.9-.7-1.7-1.7-1.7h-1.7v1.1c0 .8-.7 1.5-1.5 1.5s-1.5-.7-1.5-1.5v-1h-7.2v1.1c0 .8-.7 1.5-1.5 1.5s-1.4-.7-1.4-1.5v-1.1zm13.3-3c-.5 0-.8.4-.8.8v3.3c0 .5.4.8.8.8s.8-.4.8-.8v-3.3c0-.5-.3-.8-.8-.8zm-10.2 0c-.5 0-.8.3-.8.8v3.3c0 .5.4.8.8.8s.9-.4.9-.8v-3.3c0-.5-.4-.8-.9-.8z"/></g></svg>