<svg enable-background="new 0 0 24 24" height="24" viewBox="0 0 24 24" width="24" xmlns="http://www.w3.org/2000/svg"><path d="m0 0h24v24h-24z" fill="none"/><path d="m19.44 9.03-2.13-2.13-1.6-1.6c-.19-.19-.45-.3-.71-.3h-3c-.55 0-1 .45-1 1s.45 1 1 1h2.59l2 2h-11.59c-2.8 0-5 2.2-5 5s2.2 5 5 5c2.46 0 4.45-1.69 4.9-4h.82c.53 0 1.04-.21 1.41-.59l2.18-2.18c-.2.54-.31 1.14-.31 1.77 0 2.8 2.2 5 5 5s5-2.2 5-5c0-2.65-1.97-4.77-4.56-4.97zm-14.44 5.97h2.82c-.42 1.15-1.54 2-2.82 2-1.63 0-3-1.37-3-3s1.37-3 3-3c1.28 0 2.4.85 2.82 2h-2.82c-.55 0-1 .45-1 1s.45 1 1 1zm14 2c-1.66 0-3-1.34-3-3s1.34-3 3-3 3 1.34 3 3-1.34 3-3 3z"/></svg>