<svg enable-background="new 0 0 164 164" viewBox="0 0 164 164" xmlns="http://www.w3.org/2000/svg"><path d="m0 0h164v164h-164z" fill="none"/><path d="m145.2 44.2c0 2-.2 4-.4 6-1.3 9-5.6 17.1-11.7 23.3-7.5 7.5-17.9 12.2-29.3 12.2h-51.5l-13.1 29.5c-3.4 7.7-15 5.3-15-3.2v-31.3c-13-7-21.9-20.8-21.9-36.5 0-11.4 4.7-21.8 12.2-29.3 2.7-2.7 5.7-5 9.1-6.9 6-3.4 12.9-5.3 20.2-5.3h59.9c22.9 0 41.5 18.7 41.5 41.5z" fill="#94ddb2"/><path d="m145.2 44.2c0 2-.2 4-.4 6-13 11.2-29.9 18-48.4 18-36.1 0-66.2-25.9-72.7-60.2 6-3.4 12.9-5.3 20.2-5.3h59.9c22.8 0 41.4 18.7 41.4 41.5z" fill="#bce8ce"/><path d="m58.4 37.3v32.6c0 2.8-2.3 5-5 5h-9.5c-2.4 0-4.3-1.9-4.3-4.3v-34.1c0-2.4 1.9-4.3 4.3-4.3h9.5c2.8.1 5 2.3 5 5.1z" fill="#13a651"/><path d="m58.4 37.3v30.2h-5.2c-2.4 0-4.3-1.9-4.3-4.3v-31h4.4c2.9.1 5.1 2.3 5.1 5.1z" fill="#35d375"/><path d="m108.1 43.6v18.5c0 3.2-1.1 6.2-2.9 8.7-2.6 3.5-6.8 5.8-11.5 5.8h-28.5c-3.7 0-6.8-3.1-6.8-6.8v-31.4c0-3.7 3.1-6.8 6.8-6.8h6.2c.6 0 1.2-.3 1.5-.7l14.6-17.6c2.5-3 6.9-3.8 10.2-1.5 3.6 2.5 4.2 7.6 1.5 10.9l-4.7 5.7c-1.1 1.3-.1 3.3 1.6 3.3 3.3 0 6.3 1.3 8.5 3.5 2.1 2.1 3.5 5.1 3.5 8.4z" fill="#e3a76f"/><path d="m155.5 141.1c-4.9 8.1-12.5 14.5-22.2 17.8-21.8 7.5-45.6-4.1-53.1-25.9-6.4-18.6 1.1-38.6 16.9-48.7 2.8-1.8 5.8-3.2 9-4.3 21.8-7.5 45.6 4.1 53.1 25.9 4.2 12.2 2.5 25-3.7 35.2z" fill="#ffc350"/><path d="m155 146.4c-3 1.9-6.2 3.5-9.8 4.7-23.6 8.1-49.3-4.5-57.4-28.1-4.5-13.2-2.6-27.1 4.1-38.1 3-1.9 6.2-3.5 9.7-4.7 23.6-8.1 49.3 4.5 57.4 28.1 4.6 13.1 2.7 27-4 38.1z" fill="#ffd164"/><path d="m108.1 43.6v18.5c0 3.2-1.1 6.2-2.9 8.7-19.8-2.8-35.3-19-37-39.1h3.2c.6 0 1.2-.3 1.5-.7l14.6-17.6c2.5-3 6.9-3.8 10.2-1.5 3.6 2.5 4.2 7.6 1.5 10.9l-4.7 5.7c-1.1 1.3-.1 3.3 1.6 3.3 3.3 0 6.3 1.3 8.5 3.5 2.1 2 3.5 5 3.5 8.3z" fill="#f2bb88"/><g fill="#212121"><path d="m103.4 16.6c-1.2-8.7-12.2-11.7-17.8-4.9l-14.5 17.4h-5.9c-2.6 0-4.9 1-6.6 2.7-1.4-1.3-3.2-2.1-5.3-2.1h-9.5c-3.8 0-6.8 3.1-6.8 6.8v34.2c0 3.8 3.1 6.8 6.8 6.8h9.5c1.8 0 3.5-.6 4.8-1.7 1.7 2 4.2 3.2 7.1 3.2h28.4c9.4 0 17-7.6 17-17v-18.4c0-7.6-5.9-13.9-13.4-14.5l3.9-4.8c1.9-2.1 2.7-4.9 2.3-7.7zm-47.5 53.3c0 1.4-1.1 2.5-2.5 2.5h-9.5c-.9 0-1.7-.8-1.7-1.7v-34.2c0-.9.8-1.7 1.7-1.7h9.5c1.4 0 2.5 1.1 2.5 2.5zm41.3-48.8-4.7 5.7c-1 1-1.4 3.1-.6 4.9.8 1.6 2.3 2.6 4.1 2.6 5.2 0 9.4 4.2 9.4 9.4v18.5c0 6.5-5.3 11.9-11.9 11.9h-28.3c-2.3 0-4.2-1.9-4.2-4.2v-31.5c0-2.3 1.9-4.2 4.2-4.2h6.2c1.4 0 2.7-.6 3.5-1.7l14.6-17.5c2.8-3.4 8.2-2 8.8 2.3.2 1.4-.2 2.7-1.1 3.8z"/><path d="m21.9 94.4c0 1.3 1.1 2.4 2.4 2.4s2.4-1.1 2.4-2.4v-13.7c0-.9-.5-1.7-1.3-2.1-12.7-6.9-20.6-20-20.6-34.4 0-21.5 17.5-39.1 39.1-39.1h59.9c30.1 0 48.8 32.8 33.8 58.6-.7 1.1-.3 2.6.9 3.3 1.1.7 2.6.3 3.3-.9 16.9-29-4.1-65.8-37.9-65.8h-60c-24.2 0-43.9 19.7-43.9 43.9 0 15.6 8.3 30 21.9 37.9z"/><path d="m161.5 105c-.5-1.2-1.9-1.8-3.1-1.3s-1.8 1.8-1.4 3c7.1 20.5-3.9 42.9-24.5 50-20.5 7-42.9-3.8-50-24.5-10-29 15.7-57.5 45.2-51.3 10.4 2.2 19.7 8.5 25.4 17.6.7 1.1 2.2 1.5 3.3.8s1.5-2.2.8-3.3c-5.6-8.9-14.3-15.6-24.6-18.7 1.1-.9 2.1-1.9 3-2.9s.9-2.5-.1-3.4-2.5-.9-3.4.1c-1.7 1.8-3.5 3.4-5.5 4.8-11.6-1.8-23.1 1.1-32.2 7.4h-42.1c-1 0-1.8.6-2.2 1.4l-13.1 29.5c-2.4 5.4-10.3 3.6-10.3-2.2v-8c0-1.3-1.1-2.4-2.4-2.4s-2.4 1.1-2.4 2.4v7.9c0 10.9 15 14.3 19.6 4.1l12.4-28h34.8c-12 11.9-16.3 29.6-10.7 45.8 6.1 17.9 22.9 29.8 41.8 29.8 30.8.1 51.7-30.7 41.7-58.6z"/><circle cx="110" cy="108.7" r="4"/><circle cx="128.3" cy="108.7" r="4"/><path d="m100 117.5c0-1.3-1.1-2.4-2.4-2.4s-2.4 1.1-2.4 2.4c0 13.2 10.7 24 24 24s24-10.7 24-24c0-1.3-1.1-2.4-2.4-2.4s-2.4 1.1-2.4 2.4c0 10.6-8.6 19.1-19.1 19.1s-19.3-8.6-19.3-19.1z"/></g></svg>