<svg enable-background="new 0 0 36 36" viewBox="0 0 36 36" xmlns="http://www.w3.org/2000/svg"><path d="m0 0h36v36h-36z" fill="none"/><path d="m35.4 27.1v-18.2c0-1.4-1.1-2.5-2.5-2.5h-29.8c-1.4 0-2.5 1.1-2.5 2.5v18.2c0 1.4 1.1 2.5 2.5 2.5h29.8c1.4 0 2.5-1.1 2.5-2.5z" fill="#fff"/><path d="m35.4 27v.1c0 1.3-1.1 2.4-2.4 2.4h-30c-1.3 0-2.4-1.1-2.4-2.4v-.1z" fill="#ed1f34"/><path d="m.6 21.9h34.8v2.6h-34.8z" fill="#ed1f34"/><path d="m15.9 16.7h19.5v2.6h-19.5z" fill="#ed1f34"/><path d="m15.9 11.5h19.5v2.6h-19.5z" fill="#ed1f34"/><path d="m15.9 6.4v2.6h19.5v-.5c0-1.2-1-2.1-2.1-2.1z" fill="#ed1f34"/><path d="m.6 8.8v10.5h15.3v-12.9h-12.9c-1.3 0-2.4 1.1-2.4 2.4z" fill="#164fce"/><g fill="#fff"><circle cx="3.6" cy="16.2" r=".4"/><circle cx="5.9" cy="16.2" r=".4"/><circle cx="8.2" cy="16.2" r=".4"/><circle cx="10.5" cy="16.2" r=".4"/><circle cx="12.8" cy="16.2" r=".4"/><circle cx="2.5" cy="17.3" r=".4"/><circle cx="4.8" cy="17.3" r=".4"/><circle cx="7.1" cy="17.3" r=".4"/><circle cx="9.4" cy="17.3" r=".4"/><circle cx="11.7" cy="17.3" r=".4"/><circle cx="14" cy="17.3" r=".4"/><circle cx="2.5" cy="15.1" r=".4"/><circle cx="4.8" cy="15.1" r=".4"/><circle cx="7.1" cy="15.1" r=".4"/><circle cx="9.4" cy="15.1" r=".4"/><circle cx="11.7" cy="15.1" r=".4"/><circle cx="14" cy="15.1" r=".4"/><circle cx="3.6" cy="14" r=".4"/><circle cx="5.9" cy="14" r=".4"/><circle cx="8.2" cy="14" r=".4"/><circle cx="10.5" cy="14" r=".4"/><circle cx="12.8" cy="14" r=".4"/><circle cx="2.5" cy="12.8" r=".4"/><circle cx="4.8" cy="12.8" r=".4"/><circle cx="7.1" cy="12.8" r=".4"/><circle cx="9.4" cy="12.8" r=".4"/><circle cx="11.7" cy="12.8" r=".4"/><circle cx="14" cy="12.8" r=".4"/><circle cx="3.6" cy="11.7" r=".4"/><circle cx="5.9" cy="11.7" r=".4"/><circle cx="8.2" cy="11.7" r=".4"/><circle cx="10.5" cy="11.7" r=".4"/><circle cx="12.8" cy="11.7" r=".4"/><circle cx="2.5" cy="10.6" r=".4"/><circle cx="4.8" cy="10.6" r=".4"/><circle cx="7.1" cy="10.6" r=".4"/><circle cx="9.4" cy="10.6" r=".4"/><circle cx="11.7" cy="10.6" r=".4"/><circle cx="14" cy="10.6" r=".4"/><circle cx="3.6" cy="9.5" r=".4"/><circle cx="5.9" cy="9.5" r=".4"/><circle cx="8.2" cy="9.5" r=".4"/><circle cx="10.5" cy="9.5" r=".4"/><circle cx="12.8" cy="9.5" r=".4"/><circle cx="2.5" cy="8.4" r=".4"/><circle cx="4.8" cy="8.4" r=".4"/><circle cx="7.1" cy="8.4" r=".4"/><circle cx="9.4" cy="8.4" r=".4"/><circle cx="11.7" cy="8.4" r=".4"/><circle cx="14" cy="8.4" r=".4"/></g><path d="m32.9 5.8h-29.8c-1.7 0-3.1 1.4-3.1 3.1v18.2c0 1.7 1.4 3.1 3.1 3.1h29.9c1.7 0 3.1-1.4 3.1-3.1v-18.2c-.1-1.7-1.5-3.1-3.2-3.1zm-31.7 20.7v-1.5h27.3c.3 0 .6-.3.6-.6s-.3-.6-.6-.6h-27.3v-1.4h33.7v1.4h-4.1c-.3 0-.6.3-.6.6s.3.6.6.6h4.1v1.4h-33.7zm19.7-11.8h14v1.4h-18.4v-1.4h2.1c.3 0 .6-.3.6-.6s-.3-.6-.6-.6h-2.1v-1.4h18.4v1.4h-14c-.3 0-.6.3-.6.6s.3.6.6.6zm-4.4-3.7v-1.5h18.4v1.5zm0 6.3h18.4v1.4h-18.4zm18.3 2.6v1.4h-33.6v-1.4zm0-11.5h-18.3v-1.4h16.5c.8 0 1.6.6 1.8 1.4zm-31.7-1.4h12.2v11.7h-14.1v-9.8c0-1.1.8-1.9 1.9-1.9zm29.8 22h-29.8c-.9 0-1.6-.6-1.8-1.4h33.5c-.2.8-1 1.4-1.9 1.4z" fill="#212121"/></svg>