<svg enable-background="new 0 0 164 164" viewBox="0 0 164 164" xmlns="http://www.w3.org/2000/svg"><path d="m0 0h164v164h-164z" fill="none"/><path d="m145.3 44.2c0 2-.2 4.1-.4 6-1.3 9-5.6 17.1-11.7 23.3-7.5 7.5-17.9 12.2-29.3 12.2h-51.6l-13.1 29.5c-3.4 7.7-15 5.3-15-3.2v-31.3c-13-7-21.9-20.8-21.9-36.5 0-11.4 4.7-21.8 12.2-29.3 2.7-2.7 5.7-5 9.1-6.9 6-3.4 12.9-5.3 20.2-5.3h59.9c22.9 0 41.6 18.7 41.6 41.5z" fill="#dd9797"/><path d="m145.3 44.2c0 2-.2 4.1-.4 6-13 11.2-29.9 18-48.4 18-36.2 0-66.3-25.9-72.8-60.2 6-3.4 12.9-5.3 20.2-5.3h59.9c22.8 0 41.5 18.7 41.5 41.5z" fill="#e0adad"/><circle cx="119.8" cy="119.5" fill="#ffc350" r="41.8"/><path d="m155 146.6c-3 1.9-6.3 3.5-9.8 4.7-23.7 8.1-49.5-4.5-57.6-28.2-4.5-13.2-2.6-27.1 4.1-38.2 3-1.9 6.3-3.5 9.8-4.7 23.7-8.1 49.5 4.5 57.6 28.2 4.6 13.2 2.6 27.1-4.1 38.2z" fill="#ffd164"/><path d="m108.1 43.4v-18.5c0-3.2-1.1-6.2-2.9-8.7-2.6-3.5-6.8-5.8-11.5-5.8h-28.5c-3.7 0-6.8 3.1-6.8 6.8v31.3c0 3.7 3.1 6.8 6.8 6.8h6.2c.6 0 1.2.3 1.5.7l14.6 17.6c2.5 3 6.9 3.8 10.2 1.5 3.6-2.5 4.2-7.6 1.5-10.9l-4.7-5.7c-1.1-1.3-.1-3.3 1.6-3.3 3.3 0 6.3-1.3 8.5-3.5 2.2-2 3.5-5 3.5-8.3z" fill="#e3a76f"/><path d="m108.1 43.4v-18.5c0-3.2-1.1-6.2-2.9-8.7-19.8 2.8-35.3 19-37 39.1h3.2c.6 0 1.2.3 1.5.7l14.6 17.6c2.5 3 6.9 3.8 10.2 1.5 3.6-2.5 4.2-7.6 1.5-10.9l-4.7-5.7c-1.1-1.3-.1-3.3 1.6-3.3 3.3 0 6.3-1.3 8.5-3.5 2.2-2 3.5-5 3.5-8.3z" fill="#f2bb88"/><path d="m58.4 17.1v32.6c0 2.8-2.3 5-5 5h-9.5c-2.4 0-4.3-1.9-4.3-4.3v-34.1c0-2.4 1.9-4.3 4.3-4.3h9.5c2.8 0 5 2.3 5 5.1z" fill="#d63030"/><path d="m58.4 17.1v29h-5.9c-2.4 0-4.3-1.9-4.3-4.3v-29.8h5.2c2.8 0 5 2.3 5 5.1z" fill="#f44545"/><g fill="#212121"><path d="m43.9 57.3h9.5c2 0 3.9-.8 5.3-2.1 1.7 1.7 4 2.7 6.6 2.7h5.9l14.4 17.4c2 2.5 5 3.8 8 3.8 8.5 0 13-9.9 7.7-16.4l-3.9-4.8c7.5-.6 13.4-6.9 13.4-14.5v-18.5c0-9.4-7.6-17-17-17h-28.6c-2.8 0-5.4 1.3-7.1 3.2-1.3-1.1-3-1.7-4.8-1.7h-9.5c-3.8 0-6.8 3.1-6.8 6.8v34.2c0 3.8 3.1 6.9 6.9 6.9zm17.1-40c0-2.3 1.9-4.2 4.2-4.2h28.4c6.5 0 11.9 5.3 11.9 11.9v18.5c0 5.2-4.2 9.4-9.4 9.4-1.8 0-3.4 1-4.1 2.6-.9 1.8-.4 3.9.6 4.9l4.7 5.7c.9 1.1 1.3 2.4 1.1 3.8-.6 4.3-6 5.7-8.8 2.3l-14.6-17.8c-.9-1.1-2.2-1.7-3.5-1.7h-6.2c-2.3 0-4.2-1.9-4.2-4.2zm-18.8-1c0-.9.8-1.7 1.7-1.7h9.5c1.4 0 2.5 1.1 2.5 2.5v32.6c0 1.4-1.1 2.5-2.5 2.5h-9.5c-.9 0-1.7-.8-1.7-1.7z"/><path d="m78.9 85.7c0-1.3-1.1-2.4-2.4-2.4h-24.2c-1 0-1.8.6-2.2 1.4l-13.1 29.5c-1.3 2.9-3.8 3.2-4.8 3.2-2.7 0-5.5-1.9-5.5-5.4v-31.3c0-.9-.5-1.7-1.3-2.1-12.7-6.9-20.6-20.1-20.6-34.4 0-17.5 11.8-33 28.8-37.7 1.3-.4 2-1.7 1.7-3-.4-1.3-1.7-2-3-1.7-19 5.3-32.3 22.7-32.3 42.4 0 15.6 8.3 30 21.9 37.9v29.9c0 10.9 15.1 14.3 19.6 4.1l12.4-28.1h22.6c1.4.1 2.4-1 2.4-2.3z"/><path d="m132.7 77.2c9.2-8.1 15-19.9 15-33 0-24.2-19.7-43.9-43.9-43.9-63.4 0-59.9 0-61.4 0-1.4.1-2.4 1.2-2.4 2.5s1.2 2.4 2.5 2.3h61.3c21.5 0 39.1 17.5 39.1 39.1 0 13-6.4 24.5-16.2 31.6-11.5-1.8-23 1-32.2 7.4h-8.4c-1.3 0-2.4 1.1-2.4 2.4s1.1 2.4 2.4 2.4h2.6c-2.9 2.8-5.4 6.1-7.4 9.6-12 21.5-4.4 48.4 16.7 60.3 1.2.7 2.6.2 3.3-.9.7-1.2.2-2.6-.9-3.3-12.3-7-20-20.1-20-34.3 0-21.5 17.4-39 38.8-39.3 22.2-.3 40 17.6 40 39.4 0 26-25.2 45.2-50.4 37.8-1.3-.4-2.6.4-3 1.6-.4 1.3.4 2.6 1.6 3 28.3 8.3 56.6-13.1 56.6-42.4 0-19.2-12.5-36.5-31.3-42.3z"/><circle cx="110.6" cy="104.6" r="4"/><circle cx="128.9" cy="104.6" r="4"/><path d="m95.8 134.9c0 1.3 1.1 2.4 2.4 2.4s2.4-1.1 2.4-2.4c0-10.6 8.6-19.1 19.1-19.1s19.1 8.6 19.1 19.1c0 1.3 1.1 2.4 2.4 2.4s2.4-1.1 2.4-2.4c0-13.2-10.8-24-24-24s-23.8 10.8-23.8 24z"/></g></svg>