<svg enable-background="new 0 0 36 36" viewBox="0 0 36 36" xmlns="http://www.w3.org/2000/svg"><path d="m15.6 21c-.1-.1-.2-.2-.4-.2-.4-.1-.8-.2-1.1-.2-1.8 0-3.4 1.1-3.4 2.4 0 1.4 1.4 2.4 3.1 2.4 2.3 0 3.5-.8 3.5-2.4 0-.1 0-.3-.1-.5-.2-.6-.8-.9-1.6-1.5z"/><path d="m14.3 16.2c.4 0 .8-.2 1.1-.5.4-.5.6-1.3.5-2.2-.2-1.6-1.3-2.9-2.5-2.9-.4 0-.8.2-1.1.5-.4.5-.6 1.3-.5 2.2.2 1.5 1.3 2.9 2.5 2.9z"/><path d="m18 0c-9.9 0-18 8.1-18 18s8.1 18 18 18 18-8.1 18-18-8.1-18-18-18zm-2.1 26.8c-.7.2-1.4.3-2.2.3-.9 0-1.7-.1-2.5-.3-1.5-.4-2.6-1.1-3.1-2-.2-.4-.3-.8-.3-1.3s.1-.9.3-1.4c.8-1.7 3-2.9 5.4-2.9h.1c-.2-.3-.3-.7-.3-1.1 0-.2 0-.4.1-.6-2.5 0-4.4-1.8-4.4-4.2 0-1.7 1.4-3.4 3.3-4 .6-.2 1.2-.3 1.8-.3h5.4c.2 0 .3.1.4.3s0 .4-.2.5l-1.2.9c-.1.1-.2.1-.2.1h-.4c.6.7.9 1.6.9 2.7 0 1.2-.6 2.3-1.7 3.1-.8.6-.9.8-.9 1.2 0 .2.6.9 1.2 1.3 1.5 1.1 2 2.1 2 3.8s-1.4 3.2-3.5 3.9zm12.1-9.2c0 .2-.2.4-.4.4h-3v3c0 .2-.2.4-.4.4h-.9c-.2 0-.4-.2-.4-.4v-3h-3c-.2 0-.4-.2-.4-.4v-.9c0-.2.2-.4.4-.4h3v-3c0-.2.2-.4.4-.4h.9c.2 0 .4.2.4.4v3h3c.2 0 .4.2.4.4z"/></svg>