<svg enable-background="new 0 0 56 56" viewBox="0 0 56 56" xmlns="http://www.w3.org/2000/svg"><path d="m0 0h56v56h-56z" fill="none"/><path d="m43.8 4.4h-31.5c-1.9 0-3.5 1.6-3.5 3.5v43.8c0 1.9 1.6 3.5 3.5 3.5h31.5c1.9 0 3.5-1.6 3.5-3.5v-43.8c0-2-1.6-3.5-3.5-3.5z" fill="#9c969e"/><path d="m42.9 48.1h-29.8c-.5 0-.9-.4-.9-.9v-38.4c0-.5.4-.9.9-.9h29.8c.5 0 .9.4.9.9v38.5c0 .4-.4.8-.9.8z" fill="#fff"/><circle cx="20.1" cy="16.6" fill="#e6646e" r="1.8"/><circle cx="20.1" cy="24.5" fill="#e6646e" r="1.8"/><circle cx="20.1" cy="32.4" fill="#ffd164" r="1.8"/><circle cx="20.1" cy="40.3" fill="#c9c6ca" r="1.8"/><path d="m28 .9c-5.3 0-9.6.9-9.6 2.1v4c0 .5.4.9.9.9h17.5c.5 0 .9-.4.9-.9v-4c-.1-1.2-4.4-2.1-9.7-2.1z" fill="#dbd9dc"/><path d="m36.8 7.9h-17.5c-.5 0-.9-.4-.9-.9v-1.7h19.3v1.7c-.1.5-.5.9-.9.9z" fill="#c9c6ca"/><g fill="#212121"><path d="m43.8 3.5h-5.3v-.6c0-1.4-2-2-3.5-2.3-1.9-.4-4.4-.6-7-.6s-5.1.2-7 .6c-1.5.3-3.5.9-3.5 2.3v.6h-5.3c-2.4 0-4.3 1.9-4.3 4.3v43.8c0 2.4 1.9 4.3 4.3 4.3h31.6c2.4 0 4.3-1.9 4.3-4.3v-43.8c0-2.4-1.9-4.3-4.3-4.3zm-24.6-.5c.5-.5 3.5-1.4 8.8-1.4s8.3.9 8.8 1.4v4s0 .1-.1.1h-17.5s-.1 0-.1-.1zm27.3 48.7c0 1.5-1.2 2.7-2.7 2.7h-31.6c-1.5 0-2.7-1.2-2.7-2.7v-43.9c0-1.5 1.2-2.7 2.7-2.7h5.3v1.9c0 .9.8 1.7 1.7 1.7h17.5c.9 0 1.7-.8 1.7-1.7v-1.9h5.3c1.5 0 2.7 1.2 2.7 2.7z"/><path d="m42.9 7h-1.8c-.5 0-.8.4-.8.8s.4.8.8.8h1.8s.1 0 .1.1v38.6s0 .1-.1.1h-29.8s-.1 0-.1-.1v-38.6s0-.1.1-.1h1.8c.5 0 .8-.4.8-.8s-.4-.8-.9-.8h-1.8c-.9 0-1.7.8-1.7 1.7v38.6c0 .9.8 1.7 1.7 1.7h29.8c.9 0 1.7-.8 1.7-1.7v-38.6c.1-.9-.7-1.7-1.6-1.7z"/><path d="m20.1 19.2c1.4 0 2.6-1.2 2.6-2.6s-1.2-2.6-2.6-2.6-2.6 1.2-2.6 2.6 1.2 2.6 2.6 2.6zm0-3.5c.5 0 .9.4.9.9s-.4.9-.9.9-.9-.4-.9-.9.4-.9.9-.9z"/><path d="m25.4 15.7h12.3c.5 0 .8-.4.8-.8s-.4-.9-.9-.9h-12.2c-.5 0-.8.4-.8.8s.3.9.8.9z"/><path d="m25.4 19.2h.9c.5 0 .8-.4.8-.8s-.4-.8-.8-.8h-.9c-.5 0-.8.4-.8.8s.3.8.8.8z"/><path d="m29.8 17.5c-.5 0-.8.4-.8.8s.4.8.8.8h3.5c.5 0 .8-.4.8-.8s-.4-.8-.8-.8z"/><path d="m20.1 27.1c1.4 0 2.6-1.2 2.6-2.6s-1.2-2.6-2.6-2.6-2.6 1.2-2.6 2.6 1.2 2.6 2.6 2.6zm0-3.5c.5 0 .9.4.9.9s-.4.9-.9.9-.9-.4-.9-.9.4-.9.9-.9z"/><path d="m25.4 23.6h12.3c.5 0 .8-.4.8-.8 0-.5-.4-.8-.8-.8h-12.3c-.5 0-.8.4-.8.8-.1.4.3.8.8.8z"/><path d="m25.4 27.1h.9c.5 0 .8-.4.8-.8s-.4-.8-.8-.8h-.9c-.5 0-.8.4-.8.8s.3.8.8.8z"/><path d="m29.8 25.4c-.5 0-.8.4-.8.8s.4.8.8.8h3.5c.5 0 .8-.4.8-.8s-.4-.8-.8-.8z"/><path d="m20.1 35c1.4 0 2.6-1.2 2.6-2.6s-1.2-2.6-2.6-2.6-2.6 1.2-2.6 2.6 1.2 2.6 2.6 2.6zm0-3.5c.5 0 .9.4.9.9s-.4.9-.9.9-.9-.4-.9-.9.4-.9.9-.9z"/><path d="m25.4 31.5h12.3c.5 0 .8-.4.8-.8s-.4-.8-.8-.8h-12.3c-.5 0-.8.4-.8.8s.3.8.8.8z"/><path d="m25.4 35h.9c.5 0 .8-.4.8-.8 0-.5-.4-.8-.8-.8h-.9c-.5 0-.8.4-.8.8-.1.4.3.8.8.8z"/><path d="m29.8 33.3c-.5 0-.8.4-.8.8 0 .5.4.8.8.8h3.5c.5 0 .8-.4.8-.8 0-.5-.4-.8-.8-.8z"/><path d="m20.1 42.8c1.4 0 2.6-1.2 2.6-2.6s-1.2-2.6-2.6-2.6-2.6 1.2-2.6 2.6c0 1.5 1.2 2.6 2.6 2.6zm0-3.5c.5 0 .9.4.9.9s-.4.9-.9.9-.9-.4-.9-.9c0-.4.4-.9.9-.9z"/><path d="m25.4 39.3h12.3c.5 0 .8-.4.8-.8 0-.5-.4-.8-.8-.8h-12.3c-.5 0-.8.4-.8.8-.1.5.3.8.8.8z"/><path d="m25.4 42.8h.9c.5 0 .8-.4.8-.8 0-.5-.4-.8-.8-.8h-.9c-.5 0-.8.4-.8.8-.1.5.3.8.8.8z"/><path d="m29.8 41.2c-.5 0-.8.4-.8.8 0 .5.4.8.8.8h3.5c.5 0 .8-.4.8-.8 0-.5-.4-.8-.8-.8z"/><path d="m28 5.1c.5 0 .8-.4.8-.8s-.3-.8-.8-.8c-.5 0-.8.4-.8.8s.4.8.8.8z"/></g></svg>