<svg enable-background="new 0 0 96 48" viewBox="0 0 96 48" xmlns="http://www.w3.org/2000/svg"><path clip-rule="evenodd" d="m62.4 45.5h1.1l1.1-.1 1.1-.1 1.1-.2 1-.2 1-.3 1-.4 1-.3 1-.5.9-.5.9-.5.9-.5.8-.6.8-.7.8-.7.8-.7.7-.7.7-.8.6-.8.6-.9.6-.8.5-.9.5-1 .4-.9.4-1 .3-1 .3-1 .3-1.1.2-1.1.1-1 .1-1.1v-1.1-1.1l-.1-1.1-.1-1.1-.2-1.1-.3-1-.3-1-.3-1-.4-1-.4-1-.5-.9-.5-.9-.6-.9-.6-.8-.6-.8-.7-.8-.7-.7-.8-.8-.8-.6-.8-.7-.8-.6-.9-.5-.9-.5-.9-.5-1-.5-1-.3-1-.4-1-.3-1-.2-1.1-.2-1.1-.1-1.1-.1h-1.1-1.1l-1.1.1-1.1.1-1 .2-1.1.2-1 .3-1 .4-1 .3-.9.5-.9.5-.9.5-.9.5-.9.6-.8.7-.8.6-.7.8-.7.7-.7.8-.6.8-.6.8-.6.9-.5.9-.5.9-.4 1-.4 1-.3 1-.3 1-.3 1-.1 1.1-.2 1.1-.1 1.1v1.1 1.1l.1 1.1.2 1 .1 1.1.3 1.1.3 1 .3 1 .4 1 .4.9.5 1 .5.9.6.8.6.9.6.8.7.8.7.7.7.7.8.7.8.7.9.6.9.5.9.5.9.5.9.5 1 .3 1 .4 1 .3 1.1.2 1 .2 1.1.1 1.1.1z" fill="#fcb331" fill-rule="evenodd"/><path clip-rule="evenodd" d="m33.6 45.5h1.1l1.1-.1 1.1-.1 1-.2 1.1-.2 1-.3 1-.4 1-.3.9-.5.9-.5.9-.5.9-.5.9-.6.8-.7.8-.7.7-.7.7-.7.7-.8.6-.8.6-.9.6-.8.5-.9.5-1 .4-.9.4-1 .3-1 .3-1 .3-1.1.1-1.1.2-1 .1-1.1v-1.1-1.1l-.1-1.1-.2-1.1-.1-1.1-.3-1-.3-1-.3-1-.4-1-.4-1-.5-.9-.5-.9-.6-.9-.6-.8-.6-.8-.7-.8-.7-.7-.7-.8-.8-.6-.8-.7-.9-.6-.9-.5-.9-.5-.9-.5-.9-.5-1-.3-1-.4-1-.3-1.1-.2-1-.2-1.1-.1-1.1-.1h-1.1-1.1l-1.1.1-1.1.1-1.1.2-1 .2-1 .3-1 .4-1 .3-1 .5-.9.5-.9.5-.9.5-.8.6-.8.7-.8.6-.8.8-.7.7-.7.8-.6.8-.6.8-.6.9-.5.9-.5.9-.4 1-.4 1-.3 1-.3 1-.3 1-.2 1.1-.1 1.1-.1 1.1v1.1 1.1l.1 1.1.1 1 .2 1.1.3 1.1.3 1 .3 1 .4 1 .4.9.5 1 .5.9.6.8.6.9.6.8.7.8.7.7.8.7.8.7.8.7.8.6.9.5.9.5.9.5 1 .5 1 .3 1 .4 1 .3 1 .2 1.1.2 1.1.1 1.1.1z" fill="#ed1b2e" fill-rule="evenodd"/><path clip-rule="evenodd" d="m45.5 10.7h11.4v-1.2h-10.4z" fill="#fcb331" fill-rule="evenodd"/><path clip-rule="evenodd" d="m43.8 13.3h13.1v-1.2h-12.4z" fill="#fcb331" fill-rule="evenodd"/><path clip-rule="evenodd" d="m42.5 15.9h14.4v-1.2h-13.9z" fill="#fcb331" fill-rule="evenodd"/><path clip-rule="evenodd" d="m41.6 18.5h15.3v-1.2h-14.9z" fill="#fcb331" fill-rule="evenodd"/><path clip-rule="evenodd" d="m42.1 31.1h14.9v-1.2h-15.3z" fill="#fcb331" fill-rule="evenodd"/><path clip-rule="evenodd" d="m43.2 33.7h13.8v-1.2h-14.3z" fill="#fcb331" fill-rule="evenodd"/><path clip-rule="evenodd" d="m44.8 36.3h12.2v-1.2h-13z" fill="#fcb331" fill-rule="evenodd"/><path clip-rule="evenodd" d="m46.9 38.9h10.1v-1.2h-11.2z" fill="#fcb331" fill-rule="evenodd"/><path clip-rule="evenodd" d="m41.1 21.1h15.8v-1.2h-15.6z" fill="#fcb331" fill-rule="evenodd"/><path clip-rule="evenodd" d="m50.7 28.5h6.1v-1.2h-5.8z" fill="#fcb331" fill-rule="evenodd"/><path clip-rule="evenodd" d="m51.2 25.9h5.6v-1.2h-5.4z" fill="#fcb331" fill-rule="evenodd"/><path clip-rule="evenodd" d="m40.7 24.7h1.6v1.2h-1.5z" fill="#fcb331" fill-rule="evenodd"/><path clip-rule="evenodd" d="m37.8 23.3h-.1-.1-.1-.1l-.1-.1h-.1-.1-.1-.1-.1-.2-.1-.2-.1-.2-.2-.2-.1l-.1.1h-.1l-.1.1h-.1l-.1.1-.1.1v.1l-.1.1v.1l.1.1v.1.1l.1.1.2.1.1.1.2.1.3.1.2.1.2.1h.3l.2.1.2.2.2.1.2.2.2.2.1.3v.3l.1.4-.1.5v.3l-.1.3-.1.3-.1.2-.2.2-.2.2-.2.2-.2.1-.3.1-.2.1-.3.1-.2.1h-.3-.2-.2-.3-.3-.3-.2-.3-.2-.2-.1-.2-.2l-.1-.1h-.1-.2l-.1-.1h-.1-.1l-.1-.1.3-1.6h.1l.1.1h.2.1l.1.1h.2.2l.1.1h.2.2.2.2.3.2.2.2l.2-.1h.1l.1-.1.1-.2v-.1l.1-.1v-.1-.2l-.1-.2-.1-.1-.2-.2-.2-.1-.2-.1-.3-.1-.3-.1-.3-.1-.3-.2-.2-.2-.3-.2-.1-.3-.2-.3v-.4-.4-.3-.3l.1-.2.1-.3.1-.2.2-.2.1-.2.2-.1.2-.2.2-.1.3-.1.3-.1h.3l.4-.1h.4.4.3.2.2.2.2.2.1l.2.1h.1.1.1.1.1l.1.1z" fill="#fff" fill-rule="evenodd"/><path d="m37.8 23.3h-.1-.1-.1-.1l-.1-.1h-.1-.1-.1-.1-.1-.2-.1-.2-.1-.2-.2-.2-.1l-.1.1h-.1l-.1.1h-.1l-.1.1-.1.1v.1l-.1.1v.1l.1.1v.1.1l.1.1.2.1.1.1.2.1.3.1.2.1.2.1h.3l.2.1.2.2.2.1.2.2.2.2.1.3v.3l.1.4-.1.5v.3l-.1.3-.1.3-.1.2-.2.2-.2.2-.2.2-.2.1-.3.1-.2.1-.3.1-.2.1h-.3-.2-.2-.3-.3-.3-.2-.3-.2-.2-.1-.2-.2l-.1-.1h-.1-.2l-.1-.1h-.1-.1l-.1-.1.3-1.6h.1l.1.1h.2.1l.1.1h.2.2l.1.1h.2.2.2.2.3.2.2.2l.2-.1h.1l.1-.1.1-.2v-.1l.1-.1v-.1-.2l-.1-.2-.1-.1-.2-.2-.2-.1-.2-.1-.3-.1-.3-.1-.3-.1-.3-.2-.2-.2-.3-.2-.1-.3-.2-.3v-.4-.4-.3-.3l.1-.2.1-.3.1-.2.2-.2.1-.2.2-.1.2-.2.2-.1.3-.1.3-.1h.3l.4-.1h.4.4.3.2.2.2.2.2.1l.2.1h.1.1.1.1.1l.1.1z" fill="none" stroke="#fff" stroke-miterlimit="2.6131" stroke-width=".216"/><path clip-rule="evenodd" d="m39.5 19.9h2l-.3 1.7h1.2l-.3 1.7-1.2-.1-.7 4.1v.1.2l.1.1h.1l.1.1h.1l.2.1h.2.1l.2-.1h.1.1.1l.1-.1-.2 1.4h-.1l-.1.1h-.1l-.1.1h-.1-.1-.1l-.1.1h-.1-.1-.1-.1-.6-.3-.2l-.2-.1h-.2l-.2-.1-.1-.1-.2-.1-.1-.1v-.1l-.1-.1v-.1-.1l-.1-.2v-.2l.1-.1v-.2z" fill="#fff" fill-rule="evenodd"/><path d="m39.5 19.9h2l-.3 1.7h1.2l-.3 1.7-1.2-.1-.7 4.1v.1.2l.1.1h.1l.1.1h.1l.2.1h.2.1l.2-.1h.1.1.1l.1-.1-.2 1.4h-.1l-.1.1h-.1l-.1.1h-.1-.1-.1l-.1.1h-.1-.1-.1-.1-.6-.3-.2l-.2-.1h-.2l-.2-.1-.1-.1-.2-.1-.1-.1v-.1l-.1-.1v-.1-.1l-.1-.2v-.2l.1-.1v-.2z" fill="none" stroke="#fff" stroke-miterlimit="2.6131" stroke-width=".216"/><path clip-rule="evenodd" d="m44 26v.1.2.1.1l.1.2v.1l.1.1.1.2.1.1.1.1.1.1.2.1.1.1h.1l.2.1h.1l.2.1h.2.2.2.2.2.2.2.1l.2-.1h.2l.2-.1.2-.1h.3l.2-.2.2-.1-.3 1.8-.1.1h-.2l-.1.1h-.1-.1l-.1.1h-.1-.1l-.2.1h-.1-.2-.1-.2-.2-.2-.3-.3-.4l-.4-.1-.3-.1-.4-.1-.3-.1-.4-.2-.3-.2-.2-.3-.3-.3-.2-.3-.2-.4-.1-.4-.1-.5v-.5-.6l.1-.3v-.2l.1-.3v-.3l.2-.3.1-.3.1-.4.3-.3.2-.3.3-.2.3-.3.4-.2.4-.2.4-.1.6-.1h.6.2.3l.3.1h.3l.3.1.3.2.3.1.2.3.2.2.2.3.2.3.1.4v.4.5.6l-.1.6-.1.4h-5.3l.4-1.4h3.1l.1-.2v-.1l-.1-.2v-.1-.2l-.1-.1-.1-.1v-.1l-.1-.1-.1-.1h-.1l-.1-.1h-.2l-.1-.1h-.1-.1-.2-.1-.1l-.1.1h-.2l-.1.1-.1.1-.1.1-.1.1-.1.1v.1l-.1.1-.1.2v.1l-.1.2v.1z" fill="#fff" fill-rule="evenodd"/><path d="m44 26v.1.2.1.1l.1.2v.1l.1.1.1.2.1.1.1.1.1.1.2.1.1.1h.1l.2.1h.1l.2.1h.2.2.2.2.2.2.2.1l.2-.1h.2l.2-.1.2-.1h.3l.2-.2.2-.1-.3 1.8-.1.1h-.2l-.1.1h-.1-.1l-.1.1h-.1-.1l-.2.1h-.1-.2-.1-.2-.2-.2-.3-.3-.4l-.4-.1-.3-.1-.4-.1-.3-.1-.4-.2-.3-.2-.2-.3-.3-.3-.2-.3-.2-.4-.1-.4-.1-.5v-.5-.6l.1-.3v-.2l.1-.3v-.3l.2-.3.1-.3.1-.4.3-.3.2-.3.3-.2.3-.3.4-.2.4-.2.4-.1.6-.1h.6.2.3l.3.1h.3l.3.1.3.2.3.1.2.3.2.2.2.3.2.3.1.4v.4.5.6l-.1.6-.1.4h-5.3l.4-1.4h3.1l.1-.2v-.1l-.1-.2v-.1-.2l-.1-.1-.1-.1v-.1l-.1-.1-.1-.1h-.1l-.1-.1h-.2l-.1-.1h-.1-.1-.2-.1-.1l-.1.1h-.2l-.1.1-.1.1-.1.1-.1.1-.1.1v.1l-.1.1-.1.2v.1l-.1.2v.1z" fill="none" stroke="#fff" stroke-miterlimit="2.6131" stroke-width=".216"/><path clip-rule="evenodd" d="m61.4 22.1-.1-.1h-.1l-.1-.1h-.1l-.2-.1h-.1l-.1-.1h-.1-.2l-.1-.1h-.2-.1-.2l-.2-.1h-.1-.2-.2l-.2.1h-.2-.2l-.2.1-.2.1-.2.1-.2.1-.2.2-.2.1-.2.3-.1.2-.2.4-.1.3-.2.4-.1.5v.3l-.1.2v.3.2.3l.1.2.1.2v.2l.1.2.2.2.1.2.2.1.2.2.2.1.3.1h.3v.1h.2.1.1.2.2.1.2.2l.2-.1h.2l.2-.1h.1l.2-.1.2-.2.1-.1-.3 2h-.1l-.1.1-.1.1h-.1l-.1.1h-.2l-.1.1h-.2l-.2.1h-.3-.3-.3-.4-.4l-.3-.1h-.3l-.4-.1-.3-.2-.3-.2-.3-.2-.3-.2-.3-.3-.2-.4-.2-.3-.2-.4-.1-.5-.1-.5-.1-.5.1-.5v-.6l.1-.3.1-.3v-.3l.1-.3.1-.2.1-.3.1-.2.1-.3.1-.2.1-.2.1-.2.1-.2.2-.2.1-.1.2-.2.1-.2.2-.1.2-.1.1-.2.2-.1.2-.1.2-.1.2-.1h.2l.2-.1.3-.1h.2l.2-.1h.3.3l.2-.1h.3.2l.3.1h.2.2.2l.2.1h.2l.2.1h.1l.2.1h.1.1l.1.1h.1.1z" fill="#fff" fill-rule="evenodd"/><path d="m61.4 22.1-.1-.1h-.1l-.1-.1h-.1l-.2-.1h-.1l-.1-.1h-.1-.2l-.1-.1h-.2-.1-.2l-.2-.1h-.1-.2-.2l-.2.1h-.2-.2l-.2.1-.2.1-.2.1-.2.1-.2.2-.2.1-.2.3-.1.2-.2.4-.1.3-.2.4-.1.5v.3l-.1.2v.3.2.3l.1.2.1.2v.2l.1.2.2.2.1.2.2.1.2.2.2.1.3.1h.3v.1h.2.1.1.2.2.1.2.2l.2-.1h.2l.2-.1h.1l.2-.1.2-.2.1-.1-.3 2h-.1l-.1.1-.1.1h-.1l-.1.1h-.2l-.1.1h-.2l-.2.1h-.3-.3-.3-.4-.4l-.3-.1h-.3l-.4-.1-.3-.2-.3-.2-.3-.2-.3-.2-.3-.3-.2-.4-.2-.3-.2-.4-.1-.5-.1-.5-.1-.5.1-.5v-.6l.1-.3.1-.3v-.3l.1-.3.1-.2.1-.3.1-.2.1-.3.1-.2.1-.2.1-.2.1-.2.2-.2.1-.1.2-.2.1-.2.2-.1.2-.1.1-.2.2-.1.2-.1.2-.1.2-.1h.2l.2-.1.3-.1h.2l.2-.1h.3.3l.2-.1h.3.2l.3.1h.2.2.2l.2.1h.2l.2.1h.1l.2.1h.1.1l.1.1h.1.1z" fill="none" stroke="#fff" stroke-miterlimit="2.6131" stroke-width=".216"/><path clip-rule="evenodd" d="m79.2 29.4h-2l.2-.8v-.1l-.1.2-.2.1-.1.1-.1.1-.1.1-.2.1-.1.1h-.1l-.2.1h-.1l-.2.1h-.1-.2-.1-.1-.2-.4l-.3-.1-.3-.1-.3-.2-.3-.2-.2-.2-.2-.3-.2-.3-.1-.3-.2-.4v-.3l-.1-.4v-.4-.4-.3l.1-.4.1-.4.1-.4.2-.4.2-.4.2-.3.2-.3.2-.2.2-.3.3-.2.3-.2.2-.1.3-.1.3-.1.3-.1.3-.1h.3.2l.2.1h.2.2l.1.1.2.1h.1l.2.1.1.1.1.1.1.1.1.1v.1l.1.1.1.1v.1l.5-2.9h2z" fill="#fff" fill-rule="evenodd"/><path d="m79.2 29.4h-2l.2-.8v-.1l-.1.2-.2.1-.1.1-.1.1-.1.1-.2.1-.1.1h-.1l-.2.1h-.1l-.2.1h-.1-.2-.1-.1-.2-.4l-.3-.1-.3-.1-.3-.2-.3-.2-.2-.2-.2-.3-.2-.3-.1-.3-.2-.4v-.3l-.1-.4v-.4-.4-.3l.1-.4.1-.4.1-.4.2-.4.2-.4.2-.3.2-.3.2-.2.2-.3.3-.2.3-.2.2-.1.3-.1.3-.1.3-.1.3-.1h.3.2l.2.1h.2.2l.1.1.2.1h.1l.2.1.1.1.1.1.1.1.1.1v.1l.1.1.1.1v.1l.5-2.9h2z" fill="none" stroke="#fff" stroke-miterlimit="2.6131" stroke-width=".216"/><path clip-rule="evenodd" d="m76 27.7.2-.1h.1l.2-.1h.2l.1-.1.2-.1.1-.2.1-.1.2-.1.1-.2.1-.2v-.1l.1-.2.1-.2v-.2l.1-.2v-.2-.2-.2-.2-.2-.2l-.1-.2-.1-.1v-.2l-.1-.1-.1-.1-.1-.1-.1-.1-.2-.1h-.1-.2-.2-.1l-.2.1-.2.1h-.1l-.2.2-.1.1-.1.1-.1.2-.1.2-.1.1-.1.2-.1.2v.2l-.1.2v.2l-.1.3v.4l.1.4.1.3.1.3.2.2.3.2z" fill="#fcb331" fill-rule="evenodd"/><path clip-rule="evenodd" d="m31.3 27.8-.3 1.6h-1.8v-.3l.1-.3v-.2-.1l-.1.1-.1.2-.1.1-.2.1-.1.1-.2.1-.2.1h-.2l-.2.1h-.2l-.2.1h-.3-.2-.2-.2-.2l-.2-.1-.3-.1h-.2l-.2-.2-.1-.1-.2-.1-.1-.1-.1-.2-.1-.1v-.2l-.1-.2v-.1l-.1-.2v-.2-.1-.2-.3l.1-.2v-.3l.1-.2.1-.3.2-.2.1-.2.2-.2.2-.1.2-.2.2-.1.2-.1.3-.1.2-.1.2-.1h.3.1.1l.1-.1h.1.1.1.1.1.2.1l.1-.1h.1.1.1.2.1.2.2l.1.1h.1.1v-.1-.1l.1-.2v-.1-.2l-.1-.1-.1-.1-.1-.1-.1-.1-.2-.1-.2-.1h-.2-.2-.2-.2-.2-.3l-.2.1h-.2-.3-.2l-.2.1h-.2l-.2.1h-.1-.2l-.1.1.5-1.7.1-.1h.2l.2-.1h.2l.1-.1h.2.2.2l.2-.1h.2.2.3.2.2.3.2l.2.1h.3.2l.2.1.2.1.3.1.2.1.2.2.2.1.1.2.2.2.1.2.1.2v.3.3.3z" fill="#fff" fill-rule="evenodd"/><path d="m31.3 27.8-.3 1.6h-1.8v-.3l.1-.3v-.2-.1l-.1.1-.1.2-.1.1-.2.1-.1.1-.2.1-.2.1h-.2l-.2.1h-.2l-.2.1h-.3-.2-.2-.2-.2l-.2-.1-.3-.1h-.2l-.2-.2-.1-.1-.2-.1-.1-.1-.1-.2-.1-.1v-.2l-.1-.2v-.1l-.1-.2v-.2-.1-.2-.3l.1-.2v-.3l.1-.2.1-.3.2-.2.1-.2.2-.2.2-.1.2-.2.2-.1.2-.1.3-.1.2-.1.2-.1h.3.1.1l.1-.1h.1.1.1.1.1.2.1l.1-.1h.1.1.1.2.1.2.2l.1.1h.1.1v-.1-.1l.1-.2v-.1-.2l-.1-.1-.1-.1-.1-.1-.1-.1-.2-.1-.2-.1h-.2-.2-.2-.2-.2-.3l-.2.1h-.2-.3-.2l-.2.1h-.2l-.2.1h-.1-.2l-.1.1.5-1.7.1-.1h.2l.2-.1h.2l.1-.1h.2.2.2l.2-.1h.2.2.3.2.2.3.2l.2.1h.3.2l.2.1.2.1.3.1.2.1.2.2.2.1.1.2.2.2.1.2.1.2v.3.3.3z" fill="none" stroke="#fff" stroke-miterlimit="2.6131" stroke-width=".216"/><path clip-rule="evenodd" d="m29.6 25.9-.1-.1h-.1-.1-.1-.1-.1-.1-.1-.1-.2-.1l-.1.1h-.1-.1l-.1.1h-.1-.1l-.1.1h-.1l-.1.1-.1.1-.1.1h-.1v.1l-.1.1-.1.1v.1.2.2.2l.1.1.1.2h.1l.1.1h.1.1.2.2l.2-.1h.2l.1-.1h.2l.1-.1.1-.1h.1l.1-.1.1-.1v-.1l.1-.1v-.1h.1v-.1-.2l.1-.3v-.2z" fill="#ed1b2e" fill-rule="evenodd"/><path clip-rule="evenodd" d="m16 29.4h-2l1.7-9.5h3.4l.4 5.6 2.3-5.6h3.6l-1.7 9.5h-1.9l1.2-7.1h-.1l-2.9 7.1h-2.3v-.3-.8l-.1-1.1-.1-1.3v-1.3l-.1-1.1v-.9l-.1-.3h-.1z" fill="#fff" fill-rule="evenodd"/><path d="m16 29.4h-2l1.7-9.5h3.4l.4 5.6 2.3-5.6h3.6l-1.7 9.5h-1.9l1.2-7.1h-.1l-2.9 7.1h-2.3v-.3-.8l-.1-1.1-.1-1.3v-1.3l-.1-1.1v-.9l-.1-.3h-.1z" fill="none" stroke="#fff" stroke-miterlimit="2.6131" stroke-width=".216"/><g clip-rule="evenodd" fill-rule="evenodd"><path d="m67.4 27.8-.3 1.6h-1.8v-.3-.2-.2-.1l-.1.1-.1.1-.1.1-.2.1-.1.1-.2.1-.2.1h-.2l-.2.1h-.2l-.2.1h-.2-.2-.2-.2-.2l-.2-.1-.3-.1h-.2l-.2-.2-.1-.1-.2-.1-.1-.1-.1-.2-.1-.1v-.2l-.1-.2v-.1l-.1-.2v-.2-.1-.2-.3l.1-.2v-.3l.1-.2.1-.3.2-.2.1-.2.2-.2.2-.1.2-.2.2-.1.2-.1.2-.1.3-.1.2-.1h.3.1l.1-.1h.1.1.2.1.1.1.2l.1-.1h.1.1.1.1.2.2.1l.2.1h.1.1v-.1-.1-.2l.1-.1-.1-.2v-.1l-.1-.1-.1-.1-.2-.1-.1-.1-.2-.1h-.1-.3-.2-.2-.2-.3l-.2.1h-.2-.3-.2l-.2.1h-.2l-.2.1h-.1-.1l-.1.1h-.1l.5-1.7.1-.1h.2l.2-.1h.2l.1-.1h.2.2.2l.2-.1h.2.2.3.2.2.3.2l.2.1h.2.3l.2.1.2.1.2.1.3.1.2.2.1.1.2.2.2.2.1.2v.2l.1.3v.3.3z" fill="#fff"/><path d="m67.1 29.5v-.1l.3-1.6h-.1l-.2 1.6v.1-.1z" fill="#fff"/><path d="m65.2 29.4.1.1h1.8v-.1h-1.8-.1v.1h.1z" fill="#fff"/><path d="m65.3 28.6v-.1l-.1.2v.2.2.3h.1v-.3-.2-.2-.1-.1z" fill="#fff"/><path d="m62.5 29.5.2.1h.2.2.2l.2-.1h.2l.2-.1h.3l.1-.1.2-.1.2-.1.1-.1.2-.1.1-.1.1-.1.1-.1v-.1l-.1.1-.1.1-.2.2-.1.1h-.1l-.2.1-.2.1-.2.1h-.2l-.2.1h-.2l-.2.1h-.2-.2-.2l-.2-.1z" fill="#fff"/><path d="m60.8 27.3v.2.1.2.2l.1.1v.2l.1.2.1.1.1.2.1.1.1.2.2.1.2.1.2.1.3.1h.2v-.1h-.2l-.3-.1-.2-.1-.1-.1-.2-.1-.1-.1-.1-.2-.1-.1-.1-.2-.1-.1v-.2l-.1-.1v-.2-.2-.1-.2z" fill="#fff"/><path d="m63.4 24.5-.3.1h-.2l-.3.1-.2.1-.2.1-.3.2-.1.1-.2.2-.2.2-.2.2-.1.2-.1.3-.1.2-.1.3v.2.3h.1v-.3-.2l.1-.3.1-.2.1-.2.1-.2.2-.2.1-.2.2-.2.2-.1.2-.2.2-.1.3-.1.2-.1h.2l.3-.1z" fill="#fff"/><path d="m64.9 24.4h-.1-.1-.1-.1-.2-.1-.1l-.1.1h-.2-.1-.1-.1-.1v.1h.1.1.1.1l.2-.1h.1.1.1.2.1.1.1.1z" fill="#fff"/><path d="m65.8 24.5.1-.1h-.1-.1-.2-.1-.2-.2-.1v.1h.1.2.2.1.2.1.1z" fill="#fff"/><path d="m65.9 24v.1.2.1l-.1.1h.1v-.1l.1-.1v-.2-.1z" fill="#fff"/><path d="m65.1 23.3h.1.2l.1.1.1.1.1.1.1.1.1.1v.2h.1v-.2l-.1-.1-.1-.2-.1-.1-.1-.1-.2-.1h-.2-.1z" fill="#fff"/><path d="m61.9 23.6.1.1.1-.1h.1l.1-.1h.2.1l.2-.1h.2.2l.3-.1h.2.2.3.2.2.2.3v-.1h-.3-.2-.2-.2-.3-.2-.2l-.3.1h-.2-.2l-.2.1h-.2l-.1.1h-.2-.1l-.1.1h.1z" fill="#fff"/><path d="m62.5 21.8-.1.1-.5 1.7h.1l.5-1.7v-.1h-.1v.1z" fill="#fff"/><path d="m65.7 21.5h-.2-.3-.2-.2-.3-.2-.2-.2-.2l-.2.1h-.2-.2l-.1.1h-.2l-.2.1h-.1v.1h.2l.1-.1h.2l.2-.1h.1l.2-.1h.2.2.2.2.2.3.2.2.3.2z" fill="#fff"/><path d="m68.2 24v-.3-.3-.3l-.1-.2-.1-.2-.2-.2-.1-.2-.2-.2-.2-.1-.2-.1-.3-.1-.2-.1-.2-.1h-.3l-.2-.1h-.2v.1h.2.2l.2.1.3.1h.2l.2.1.2.2.2.1.2.2.2.1.1.2.1.2.1.3v.2.3.3z" fill="#fff"/><path d="m67.4 27.8.8-3.8h-.1l-.8 3.8z" fill="#fff"/><path d="m65.6 25.9v-.1h-.1-.1-.1-.1-.1-.1-.2-.1-.1-.1l-.1.1h-.1-.1-.1v.1h-.1-.1l-.1.1h-.1l-.1.1h-.1l-.1.1-.1.1v.1l-.1.1-.1.1v.1.2.2.2l.1.1v.2h.2l.1.1h.1.1.2.3l.1-.1h.2l.2-.1h.1l.1-.1.2-.1.1-.1v-.1l.1-.1.1-.1.1-.1v-.1-.1l.1-.2v-.2-.2z" fill="#fcb331"/><path d="m80.6 28.4v-.2l.1-.1.1-.2.1-.2.2-.1.1-.1h.2l.2-.1.2.1h.2l.2.1.1.1.2.2.1.2v.1.2h-.2v-.1-.2l-.1-.1-.1-.1-.1-.1-.1-.1-.2-.1h-.2-.1l-.2.1-.1.1-.2.1-.1.1v.1l-.1.2v.1z" fill="#fff"/><path d="m81.3 28.4v-.4h.4.1.1v.1h.1v.1.1.1h-.3.1l.1-.1v-.1h-.1v-.1h-.1-.3v.3z" fill="#fff"/><path d="m80.6 28.4v.1.2l.1.2.1.1.1.2.2.1.1.1.2.1h.2.2l.2-.1.2-.1.1-.1.2-.2.1-.1v-.2-.2-.1h-.2v.1.1.2l-.1.1-.1.2-.1.1h-.1l-.2.1h-.2-.1l-.2-.1h-.1l-.2-.1-.1-.2v-.1l-.1-.2v-.1-.1z" fill="#fff"/><path d="m81.3 28.4v.5h.1v-.4h.2l.2.4h.2l-.2-.4h.1l.1-.1h-.3-.1-.2z" fill="#fff"/></g><path d="m80.6 28.5v-.2l.1-.2.1-.2.1-.2.2-.1.2-.1.2-.1h.2.2l.2.1.2.1.2.1.1.2.1.2.1.2v.2.2l-.1.2-.2.1-.1.1-.2.1-.2.2-.2.1h-.2-.2l-.2-.1-.2-.1-.2-.1v-.2l-.1-.2-.1-.2zm.8.4h-.2v-.9h.4.1.1.1.1v.1.1.1.1h-.1-.1l.2.4h-.1l-.2-.4h-.2v.5m.1-.5h.1v-.1h-.2v.3h.1m0 .7h.2l.2-.1.1-.1.1-.1.1-.1.1-.1v-.2-.2-.2-.2h-.1l-.1-.1-.1-.1-.1-.1-.2-.1h-.2-.2l-.2.1-.1.1-.1.1-.1.1-.1.1v.2.2.2.2l.1.1.1.1.1.1.1.1.2.1z" fill="none" stroke="#fff" stroke-miterlimit="2.6131" stroke-width=".216"/><path clip-rule="evenodd" d="m67.9 29.4h2.1l.7-4.1v-.2l.1-.1v-.2l.1-.2.1-.1.1-.2v-.1l.2-.2.1-.1.1-.1.2-.1.2-.1.2-.1h.2l.3-.1h.3.1.1l.3-1.9-.2.1h-.2-.2l-.2.1h-.1l-.2.1-.1.1-.2.1-.1.1-.1.1-.1.1-.2.1-.1.1-.1.2-.1.1-.1.1.2-1.3h-2z" fill="#fff" fill-rule="evenodd"/><path d="m67.9 29.4h2.1l.7-4.1v-.2l.1-.1v-.2l.1-.2.1-.1.1-.2v-.1l.2-.2.1-.1.1-.1.2-.1.2-.1.2-.1h.2l.3-.1h.3.1.1l.3-1.9-.2.1h-.2-.2l-.2.1h-.1l-.2.1-.1.1-.2.1-.1.1-.1.1-.1.1-.2.1-.1.1-.1.2-.1.1-.1.1.2-1.3h-2z" fill="none" stroke="#fff" stroke-miterlimit="2.6131" stroke-width=".216"/><path clip-rule="evenodd" d="m48.7 29.4h2 .1l.7-4.1v-.2-.1l.1-.2v-.1l.1-.2.1-.1v-.1l.1-.2.2-.1.1-.1.2-.1.1-.1h.2l.3-.1h.2.3.1.1v-.1l.1-.2v-.1l.1-.2v-.2l.1-.2v-.2l.1-.1.1-.2v-.1l.1-.1.1-.2.1-.1h-.1-.1-.1v-.1h-.1l-.2.1h-.2-.2l-.2.1h-.1l-.2.1-.1.1-.1.1h-.2l-.1.2-.1.1-.1.1-.1.1-.1.2-.1.1-.1.1.2-1.3h-2.1z" fill="#fff" fill-rule="evenodd"/><path d="m48.7 29.4h2 .1l.7-4.1v-.2-.1l.1-.2v-.1l.1-.2.1-.1v-.1l.1-.2.2-.1.1-.1.2-.1.1-.1h.2l.3-.1h.2.3.1.1v-.1l.1-.2v-.1l.1-.2v-.2l.1-.2v-.2l.1-.1.1-.2v-.1l.1-.1.1-.2.1-.1h-.1-.1-.1v-.1h-.1l-.2.1h-.2-.2l-.2.1h-.1l-.2.1-.1.1-.1.1h-.2l-.1.2-.1.1-.1.1-.1.1-.1.2-.1.1-.1.1.2-1.3h-2.1z" fill="none" stroke="#fff" stroke-miterlimit="2.6131" stroke-width=".216"/></svg>