<svg enable-background="new 0 0 48 48" viewBox="0 0 48 48" xmlns="http://www.w3.org/2000/svg"><path d="m0 0h48v48h-48z" fill="none"/><path d="m33 .7c-21.8 0-32.3 19.6-32.3 32.3 0 7.9 3.4 14.3 11.3 14.3 10.7 0 9-15.8 21-18 8.1-1.5 14.3-6.4 14.3-14.3s-6.4-14.3-14.3-14.3z" fill="#f0eced"/><path d="m15 45.8c-7.9 0-11.3-6.3-11.3-14.2 0-9.2 5.5-21.9 16.6-28.3-13.2 5.6-19.6 19.8-19.6 29.7 0 7.9 3.4 14.3 11.3 14.3 2.2 0 3.9-.7 5.3-1.8-.8.2-1.4.3-2.3.3z" fill="#e1d8dc"/><path d="m12 42.8c-2.2 0-3.8-.7-4.9-2.3-1.2-1.7-1.9-4.4-1.9-7.5 0-4.6 1.8-11.8 6.9-18.1 3.7-4.5 10.3-9.8 20.8-9.8 5.4 0 9.8 4.4 9.8 9.8 0 2.5-.9 4.5-2.7 6.3-1.9 1.7-4.6 3-8 3.6-8.1 1.5-11.6 7.6-14.1 12.1-1 1.9-2.1 3.6-3.2 4.7-.6.8-1.5 1.2-2.7 1.2z" fill="#ea9174"/><path d="m32.7 24.7c.8-.2 1.5-.3 2.2-.6-.7.2-1.5.4-2.2.6z" fill="#d85836"/><path d="m10 39.8c-1.2-1.7-1.9-4.4-1.9-7.5 0-4.6 1.8-11.8 6.9-18.1 2.6-3.2 6.6-6.7 12.4-8.5-7.5 1.5-12.4 5.7-15.4 9.3-5.1 6.3-6.9 13.4-6.9 18.1 0 3.2.7 5.8 1.9 7.5 1.1 1.5 2.7 2.3 4.9 2.3 1 0 1.7-.3 2.5-.8-1.9-.2-3.3-1-4.4-2.3z" fill="#d85836"/><circle cx="33" cy="14.2" fill="#f0eced" r="4.5"/><g fill="#212121"><path d="m33 0c-5.2 0-10.1 1.1-14.6 3.3-3.9 2-7.4 4.8-10.3 8.3-5 6.1-8.1 14.4-8.1 21.4 0 4.3.9 7.9 2.8 10.5 2.1 3 5.3 4.5 9.2 4.5 2.6 0 4.8-.9 6.6-2.7 1.6-1.5 2.7-3.6 4-5.8 2.4-4.2 4.8-8.5 10.5-9.5 4.3-.8 8-2.5 10.5-4.9 2.8-2.7 4.3-6.1 4.3-10 .1-8.4-6.6-15.1-14.9-15.1zm-.1 28.5c-6.3 1.2-9.1 6-11.5 10.2s-4.4 7.8-9.4 7.8c-3.5 0-6.2-1.3-8.1-3.9-1.6-2.3-2.6-5.7-2.6-9.7 0-6.8 3-14.6 7.8-20.5 4.3-4.9 11.8-11 23.8-11 7.5 0 13.5 6.1 13.5 13.5.2 7-4.9 12.1-13.5 13.6z"/><path d="m33 4.5c-10.9 0-17.7 5.5-21.4 10-.6.7-1.1 1.5-1.6 2.2-.3.3-.2.8.2.9.3.3.8.2.9-.2.5-.7 1-1.5 1.5-2.1 3.7-4.5 10.1-9.6 20.4-9.6 5 0 9.1 4 9.1 9.1 0 2.3-.8 4.2-2.4 5.7-1.7 1.6-4.4 2.8-7.6 3.4-8.4 1.5-12 7.8-14.6 12.4-1 1.8-2.1 3.5-3.1 4.5-.8.8-1.4 1-2.5 1-2.1 0-3.3-.6-4.4-2-1.1-1.5-1.7-4.1-1.7-7.1 0-1.9.3-6.8 3.4-12.6.2-.3.1-.8-.3-.9s-.8-.1-.9.3c-2.3 4.3-3.6 9.1-3.6 13.3 0 3.3.7 6.1 2 7.9 1.2 1.7 3 2.6 5.5 2.6 1.5 0 2.4-.4 3.4-1.4 1.2-1.1 2.2-2.9 3.3-4.9 2.5-4.4 5.9-10.3 13.6-11.7 3.5-.7 6.3-2 8.3-3.8s2.9-4 2.9-6.8c.1-5.5-4.6-10.2-10.4-10.2z"/><path d="m38.2 14.2c0-2.9-2.3-5.2-5.2-5.2s-5.2 2.3-5.2 5.2 2.3 5.2 5.2 5.2 5.2-2.3 5.2-5.2zm-9 0c0-2.1 1.7-3.8 3.8-3.8s3.8 1.7 3.8 3.8-1.7 3.8-3.8 3.8-3.8-1.6-3.8-3.8z"/></g></svg>