<svg enable-background="new 0 0 56 56" viewBox="0 0 56 56" xmlns="http://www.w3.org/2000/svg"><path d="m0 0h56v56h-56z" fill="none"/><path d="m2.1 25.9c-.8.2-1.3.9-1.3 1.7v6c0 .8.5 1.5 1.3 1.7l2.2.5v-10.4z" fill="#ffe17d"/><path d="m2.6 35.5 1.7.4v-10.5l-1.7.4z" fill="#ffd164"/><path d="m31.1 55.2h-2.6c-1.2 0-2.2-1-2.2-2.2 0-1.2 1-2.2 2.2-2.2h2.6c1.2 0 2.2 1 2.2 2.2 0 1.2-1 2.2-2.2 2.2z" fill="#4b3f4e"/><path d="m7 37.6h-.9c-1 0-1.8-.8-1.8-1.8v-10.4c0-1 .8-1.8 1.8-1.8h.9c1 0 1.8.8 1.8 1.8v10.5c-.1 1-.9 1.7-1.8 1.7z" fill="#5d5360"/><path d="m7.4 36.8c-.7 0-1.3-.6-1.3-1.3v-9.6c0-.7.6-1.3 1.3-1.3.7 0 1.3.6 1.3 1.3v9.6c0 .7-.6 1.3-1.3 1.3z" fill="#6f6571"/><path d="m53.9 35.3c.8-.2 1.3-.9 1.3-1.7v-6c0-.8-.5-1.5-1.3-1.7l-2.2-.5v10.5z" fill="#ffe17d"/><path d="m53.4 25.8-1.7-.4v10.5l1.7-.4z" fill="#ffd164"/><path d="m49.9 37.6h-.9c-1 0-1.8-.8-1.8-1.8v-10.4c0-1 .8-1.8 1.8-1.8h.9c1 0 1.8.8 1.8 1.8v10.5c0 1-.8 1.7-1.8 1.7z" fill="#5d5360"/><path d="m50.4 36.8c-.7 0-1.3-.6-1.3-1.3v-9.6c0-.7.6-1.3 1.3-1.3.7 0 1.3.6 1.3 1.3v9.6c0 .7-.6 1.3-1.3 1.3z" fill="#6f6571"/><path d="m31.1 50.8h-2.6c-.2 0-.3 0-.4 0v.8c0 1 .8 1.8 1.8 1.8h2.6c.3 0 .6-.1.8-.2 0-.1 0-.2 0-.3 0-1.1-1-2.1-2.2-2.1z" fill="#5d5360"/><path d="m54.1 25.1-1.6-.4v-.2c0-6.5-2.5-12.7-7.2-17.3s-10.8-7.2-17.3-7.2-12.7 2.5-17.3 7.2-7.2 10.8-7.2 17.3v.2l-1.6.4c-1.1.3-1.9 1.3-1.9 2.5v6c0 1.2.8 2.2 1.9 2.5l1.6.4c.3 1.1 1.3 1.9 2.5 1.9h1c1.4 0 2.6-1.2 2.6-2.6v-10.4c0-1.4-1.2-2.6-2.6-2.6h-.9c-.3 0-.6.1-.9.2.8-11.9 10.7-21.4 22.8-21.4s22 9.5 22.8 21.4c-.3-.1-.6-.2-.9-.2h-.9c-1.4 0-2.6 1.2-2.6 2.6v10.5c0 1.4 1.2 2.6 2.6 2.6h.9c.3 0 .5 0 .7-.1-1.2 7.6-7.8 13.4-15.6 13.4h-1.2c-.5-1-1.5-1.8-2.7-1.8h-2.6c-1.7 0-3 1.4-3 3s1.4 3 3 3h2.6c1.5 0 2.8-1.1 3-2.6h1c9.4 0 17.1-7.5 17.5-16.8l1.6-.4c1.1-.3 1.9-1.3 1.9-2.5v-6c-.1-1.3-.9-2.3-2-2.6zm-48-.7h.9c.5 0 .9.4.9.9v10.5c0 .5-.4.9-.9.9h-.9c-.5 0-.9-.4-.9-.9v-5.3c0-.5-.4-.8-.8-.8s-.8.4-.8.8v4.2l-1.2-.3c-.4-.1-.7-.5-.7-.9v-6c0-.4.3-.8.7-.9l1.2-.3v.7c0 .5.4.8.8.8s.8-.4.8-.8v-1.8c-.1-.3.4-.8.9-.8zm25 30h-2.6c-.8 0-1.4-.6-1.4-1.4s.6-1.4 1.4-1.4h2.6c.8 0 1.4.6 1.4 1.4-.1.7-.7 1.4-1.4 1.4zm23.3-20.8c0 .4-.3.8-.7.9l-1.2.3v-4.2c0-.5-.4-.8-.8-.8s-.8.4-.8.8v5.3c0 .5-.4.9-.9.9h-1c-.5 0-.9-.4-.9-.9v-10.5c0-.5.4-.9.9-.9h.9c.5 0 .9.4.9.9v1.8c0 .5.4.8.8.8s.8-.4.8-.8v-.7l1.2.3c.4.1.7.5.7.9v5.9z" fill="#212121"/></svg>