<svg enable-background="new 0 0 56 56" viewBox="0 0 56 56" xmlns="http://www.w3.org/2000/svg"><path d="m0 0h56v56h-56z" fill="none"/><path d="m40.3 34.1h-36.8c-1.5 0-2.6-1.2-2.6-2.6v-24.5c0-1.5 1.2-2.6 2.6-2.6h36.8c1.5 0 2.6 1.2 2.6 2.6v24.5c0 1.5-1.2 2.6-2.6 2.6z" fill="#aea8af"/><path d="m3.5 14v-9.7c-1.5 0-2.7 1.2-2.7 2.7v24.5c0 1.5 1.2 2.6 2.6 2.6h36.8c1.5 0 2.6-1.2 2.6-2.6h-21.8c-9.7 0-17.5-7.8-17.5-17.5z" fill="#9c969e"/><path d="m11.3 19.2h-3.5c-1 0-1.8-.8-1.8-1.8v-1.8c0-1 .8-1.8 1.8-1.8h3.5c1 0 1.8.8 1.8 1.8v1.8c0 1-.8 1.8-1.8 1.8z" fill="#ffd164"/><circle cx="34.1" cy="13.1" fill="#ffe17d" r="3.5"/><circle cx="27.1" cy="13.1" fill="#e6646e" r="3.5"/><path d="m54.5 30.5-11.2-3.2c-.3-.1-.6-.1-1 0l-11.2 3.2c-.4.1-.6.5-.6.8 0 2.8.9 13.9 11.8 20.1.3.2.6.2.9 0 11-5.9 11.8-17.3 11.8-20.1.2-.4-.1-.7-.5-.8z" fill="#edebed"/><path d="m42.4 27.3-11.2 3.2c-.4.1-.6.5-.6.8 0 2.8.9 13.9 11.8 20.1.1.1.3.1.4.1v-24.3c-.1 0-.2 0-.4.1z" fill="#dbd9dc"/><path d="m42.9 30.8 8.6 2.5c-.4 3.5-2.1 10.2-8.6 14.4-6.6-4.4-8.3-10.9-8.7-14.4z" fill="#ffd164"/><path d="m42.9 33.5 5.7 1.6c-.7 2.8-2.2 6.5-5.6 9.2-3.5-2.9-5-6.5-5.7-9.2z" fill="#ffe17d"/><g fill="#212121"><path d="m56 30.6c0-.3-.3-.6-.6-.7l-12.3-3.5c-.1 0-.3 0-.5 0l-12.3 3.5c-.3.1-.6.4-.6.7 0 .1-.2 3.7 1.3 8.2 1.4 4.1 4.4 9.9 11.4 13.7.1.1.3.1.4.1s.3 0 .4-.1c7-3.6 10.1-9.3 11.4-13.5 1.6-4.6 1.4-8.3 1.4-8.4zm-2.8 7.8c-.8 2.5-2 4.7-3.5 6.7-1.8 2.3-4.1 4.2-6.8 5.7-5-2.8-8.5-7-10.2-12.4-1-3.2-1.2-5.9-1.2-7l11.4-3.4 11.5 3.3c-.1 1.1-.2 3.9-1.2 7.1z"/><path d="m34 32.5c-.4.1-.6.5-.6.9.4 3.6 2.2 10.4 9 15 .1.1.3.1.5.1s.3 0 .4-.1c6.8-4.4 8.6-11.2 9-15 0-.4-.2-.8-.6-.9l-8.6-2.5c-.1 0-.3 0-.5 0zm16.6 1.3c-.5 3.4-2.2 9-7.7 12.8-5.6-3.9-7.3-9.4-7.8-12.8l7.7-2.2z"/><path d="m27.1 33.3h-23.6c-1 0-1.8-.8-1.8-1.8v-24.5c0-1 .8-1.8 1.8-1.8h36.8c1 0 1.8.8 1.8 1.8v16.7c0 .5.4.8.8.8s.8-.4.8-.8v-16.7c0-1.9-1.5-3.5-3.5-3.5h-36.7c-2 0-3.5 1.6-3.5 3.5v24.5c0 1.9 1.5 3.5 3.5 3.5h23.7c.5 0 .8-.4.8-.8-.1-.5-.4-.9-.9-.9z"/><path d="m7.8 20.1h3.5c1.4 0 2.6-1.2 2.6-2.6v-1.8c0-1.4-1.2-2.6-2.6-2.6h-3.5c-1.4 0-2.6 1.2-2.6 2.6v1.8c.1 1.4 1.2 2.6 2.6 2.6zm4.5-4.4v1.8c0 .5-.4.9-.9.9h-.9v-3.6h.9c.5 0 .9.4.9.9zm-5.4 0c0-.5.4-.9.9-.9h.9v3.6h-.9c-.5 0-.9-.4-.9-.9z"/><path d="m6.1 24.4h5.3c.5 0 .8-.4.8-.8 0-.5-.4-.8-.8-.8h-5.3c-.5 0-.8.4-.8.8 0 .5.3.8.8.8z"/><path d="m20.1 22.8h-5.3c-.5 0-.8.4-.8.8 0 .5.4.8.8.8h5.3c.5 0 .8-.4.8-.8s-.3-.8-.8-.8z"/><path d="m6.1 28.8h17.5c.5 0 .8-.4.8-.8s-.4-.8-.8-.8h-17.5c-.5 0-.8.4-.8.8s.3.8.8.8z"/><path d="m28.9 22.8h-5.3c-.5 0-.8.4-.8.8 0 .5.4.8.8.8h5.3c.5 0 .8-.4.8-.8s-.4-.8-.8-.8z"/><path d="m32.4 22.8c-.5 0-.8.4-.8.8 0 .5.4.8.8.8h5.3c.5 0 .8-.4.8-.8 0-.5-.4-.8-.8-.8z"/><path d="m34.1 8.8c-1.4 0-2.7.7-3.5 1.8-.8-1.1-2.1-1.8-3.5-1.8-2.4 0-4.3 1.9-4.3 4.3s1.9 4.3 4.3 4.3c1.4 0 2.7-.7 3.5-1.8.8 1.1 2.1 1.8 3.5 1.8 2.4 0 4.3-1.9 4.3-4.3.1-2.4-1.9-4.3-4.3-4.3zm-7 7c-1.5 0-2.7-1.2-2.7-2.7s1.2-2.7 2.7-2.7 2.7 1.2 2.7 2.7-1.2 2.7-2.7 2.7zm7 0c-1.5 0-2.7-1.2-2.7-2.7s1.2-2.7 2.7-2.7 2.7 1.2 2.7 2.7-1.2 2.7-2.7 2.7z"/></g></svg>