<svg enable-background="new 0 0 56 56" viewBox="0 0 56 56" xmlns="http://www.w3.org/2000/svg"><path d="m0 0h56v56h-56z" fill="none"/><path d="m21.7 1.1-19.6 9.4c-.2.1-.4.4-.4.6v23.3c0 .3.2.5.4.6l19.6 9.5c.4.2.8.2 1.2 0l19.6-9.5c.2-.1.4-.4.4-.6v-23.2c0-.3-.2-.5-.4-.6l-19.6-9.5c-.4-.2-.8-.2-1.2 0z" fill="#ffe17d"/><path d="m1.8 10.8c-.1.1-.1.2-.1.4v23.3c0 .3.2.5.4.6l19.6 9.5c.2.1.4.1.6.1v-24z" fill="#ffc350"/><path d="m42.8 10.8c.1.1.1.2.1.4v23.3c0 .3-.2.5-.4.6l-19.6 9.5c-.2.1-.4.1-.6.1v-24z" fill="#ffd164"/><path d="m35.8 14.1-20.5-9.9-5.4 2.6 20.6 10z" fill="#ff8087"/><path d="m30.5 16.8v7.7c0 .3.3.4.5.3l4.5-2.2c.2-.1.4-.4.4-.6v-7.9z" fill="#e6646e"/><circle cx="42" cy="42.9" fill="#edebed" r="12.3"/><circle cx="42" cy="42.9" fill="#fff" r="9.6"/><circle cx="42" cy="42.9" fill="#edebed" r="4.4"/><circle cx="42" cy="42.9" fill="#aea8af" r="1.8"/><g fill="#212121"><path d="m26.5 17.8-4.2 2-18.7-9 6.2-3 19.8 9.6v7.9c0 .3.1.5.4.7.1.1.3.1.4.1s.2 0 .4-.1l5-2.4c.3-.1.5-.4.5-.7v-7.9l5.8-2.8v15c0 .5.4.8.8.8.5 0 .8-.4.8-.8v-16.4c0-.3-.2-.6-.5-.7l-20.5-10c-.2-.1-.5-.1-.7 0l-20.7 9.9c-.3.1-.5.4-.5.7v24.2c0 .3.2.6.5.7l20.6 9.9c.1.1.2.1.4.1s.2 0 .4-.1l4.2-2c.4-.2.6-.7.4-1.1s-.7-.6-1.1-.4l-3 1.4v-22.2l4.1-2c.4-.2.6-.7.4-1.1-.3-.3-.8-.5-1.2-.3zm-11.2-12.7 18.7 9-3.5 1.7-18.7-9zm19.3 17.2-3.3 1.6v-6.6l3.3-1.6zm-12.3-20.6 18.7 9-5.2 2.5s0 0-.1 0l-18.7-9zm-19.8 10.4 19 9.2v22.3l-19-9.2z"/><path d="m8.6 31.7-3-1.5c-.4-.2-.9 0-1.1.4s0 .9.4 1.1l3 1.5c.1.1.2.1.4.1.3 0 .6-.2.7-.5.2-.4 0-.9-.4-1.1z"/><path d="m11.4 29.4-5.8-2.8c-.4-.2-.9 0-1.1.4s0 .9.4 1.1l5.8 2.8c.1.1.2.1.4.1.3 0 .6-.2.7-.5.2-.5 0-1-.4-1.1z"/><path d="m42 29.8c-7.2 0-13.1 5.9-13.1 13.1s5.9 13.1 13.1 13.1 13.1-5.9 13.1-13.1-5.9-13.1-13.1-13.1zm0 24.6c-6.3 0-11.5-5.1-11.5-11.5s5.2-11.4 11.5-11.4 11.5 5.1 11.5 11.5-5.2 11.4-11.5 11.4z"/><path d="m50.8 42.1h-6.3c-.3-.8-.9-1.4-1.6-1.6v-6.3c0-.5-.4-.8-.8-.8-.5 0-.8.4-.8.8v6.3c-1 .3-1.8 1.3-1.8 2.4 0 1.4 1.2 2.6 2.6 2.6 1.1 0 2.1-.7 2.4-1.8h6.3c.5 0 .8-.4.8-.8s-.4-.8-.8-.8zm-8.8 1.7c-.5 0-.9-.4-.9-.9s.4-.9.9-.9.9.4.9.9c.1.5-.4.9-.9.9z"/></g></svg>