<svg enable-background="new 0 0 24 24" viewBox="0 0 24 24" xmlns="http://www.w3.org/2000/svg"><path d="m0 0h24v24h-24z" fill="none"/><path d="m22.5 16.7h-15.8c-.6 0-1.1-.5-1.1-1.1v-10.6c0-.6.5-1.1 1.1-1.1h15.8c.6 0 1.1.5 1.1 1.1v10.5c0 .7-.4 1.2-1.1 1.2z" fill="#ffc350"/><path d="m5.6 6.2h11.6c1.3 0 2.3 1 2.3 2.3v8.3h-12.8c-.6 0-1.1-.5-1.1-1.1z" fill="#e1e1e4"/><path d="m5.6 5.8h18.1v2.3h-18.1z" fill="#f8f8f8"/><path d="m17.3 6.2h-11.7v1.9h13.9c-.2-1-1.1-1.9-2.2-1.9z" fill="#e1e1e4"/><path d="m17.3 20.1h-15.8c-.6 0-1.1-.5-1.1-1.1v-10.5c0-.6.5-1.1 1.1-1.1h15.8c.6 0 1.1.5 1.1 1.1v10.5c0 .6-.5 1.1-1.1 1.1z" fill="#f8f8f8"/><path d="m1.5 11.5v-4.2c-.6 0-1.1.5-1.1 1.1v10.6c0 .6.5 1.1 1.1 1.1h15.8c.6 0 1.1-.5 1.1-1.1h-9.4c-4.1 0-7.5-3.4-7.5-7.5z" fill="#e1e1e4"/><path d="m4.9 13.7h-1.5c-.4 0-.8-.4-.8-.8v-.8c0-.4.4-.8.8-.8h1.5c.4 0 .8.4.8.8v.8c-.1.5-.4.8-.8.8z" fill="#ffd164"/><circle cx="14.6" cy="11" fill="#ffd164" r="1.5"/><circle cx="11.6" cy="11" fill="#e6646e" r="1.5"/><g fill="#212121"><path d="m17.3 7h-15.8c-.8 0-1.5.6-1.5 1.5v10.5c0 .8.7 1.5 1.5 1.5h15.8c.8 0 1.5-.7 1.5-1.5v-10.5c-.1-.9-.7-1.5-1.5-1.5zm.8 12c0 .4-.4.8-.8.8h-15.8c-.4 0-.8-.4-.8-.8v-10.5c0-.4.4-.8.8-.8h15.8c.4 0 .8.4.8.8z"/><path d="m3.4 14h1.5c.6 0 1.1-.5 1.1-1.1v-.8c0-.6-.5-1.1-1.1-1.1h-1.5c-.6 0-1.1.5-1.1 1.1v.9c0 .6.5 1 1.1 1zm1.9-1.8v.8c0 .2-.2.4-.4.4h-.5v-1.6h.4c.3 0 .5.1.5.4zm-2.3 0c0-.2.1-.4.3-.4h.4v1.6h-.3c-.2 0-.4-.2-.4-.4z"/><path d="m2.6 15.9h2.3c.2 0 .4-.2.4-.4s-.2-.4-.4-.4h-2.3c-.2 0-.4.2-.4.4.1.3.2.4.4.4z"/><path d="m6.4 15.9h2.3c.2 0 .4-.2.4-.4s-.2-.4-.4-.4h-2.3c-.2 0-.4.2-.4.4 0 .3.2.4.4.4z"/><path d="m10.1 17.1h-7.5c-.2 0-.4.2-.4.4s.2.4.4.4h7.5c.2 0 .4-.2.4-.4s-.2-.4-.4-.4z"/><path d="m12.4 15.2h-2.3c-.2 0-.4.2-.4.4s.2.4.4.4h2.3c.2 0 .4-.2.4-.4-.1-.2-.3-.4-.4-.4z"/><path d="m16.1 15.2h-2.3c-.2 0-.4.2-.4.4s.2.4.4.4h2.3c.2 0 .4-.2.4-.4s-.2-.4-.4-.4z"/><path d="m14.6 9.2c-.6 0-1.1.3-1.5.8-.4-.5-.9-.8-1.5-.8-1 0-1.9.8-1.9 1.9 0 1 .8 1.9 1.9 1.9.6 0 1.1-.3 1.5-.8.4.5.9.8 1.5.8 1 0 1.9-.8 1.9-1.9s-.8-1.9-1.9-1.9zm-3 3c-.7 0-1.1-.5-1.1-1.1 0-.7.5-1.1 1.1-1.1s1.1.5 1.1 1.1c.1.6-.5 1.1-1.1 1.1zm3 0c-.7 0-1.1-.5-1.1-1.1 0-.7.5-1.1 1.1-1.1.7 0 1.1.5 1.1 1.1.1.6-.5 1.1-1.1 1.1z"/><path d="m22.5 3.5h-15.8c-.8 0-1.5.7-1.5 1.5v.8c0 .2.2.4.4.4h17.7v1.6h-3.4c-.2 0-.4.2-.4.4s.2.4.4.4h3.4v7.1c0 .4-.4.8-.8.8h-2.6c-.2 0-.4.2-.4.4s.2.4.4.4h2.6c.8 0 1.5-.7 1.5-1.5v-10.8c0-.7-.7-1.5-1.5-1.5zm-16.6 2v-.5c0-.4.4-.8.8-.8h15.8c.4 0 .8.4.8.8v.4c0 .1-17.4.1-17.4.1z"/></g></svg>