<svg enable-background="new 0 0 48 48" viewBox="0 0 48 48" xmlns="http://www.w3.org/2000/svg"><path d="m0 0h48v48h-48z" fill="none"/><path d="m47.3 24c0 12.9-10.5 23.3-23.3 23.3s-23.3-10.4-23.3-23.3 10.4-23.3 23.3-23.3 23.3 10.4 23.3 23.3z" fill="#e8e7e6"/><path d="m39.6 24c0 8.6-6.9 15.6-15.6 15.6s-15.6-7-15.6-15.6 7-15.6 15.6-15.6 15.6 7 15.6 15.6z" fill="#d1d1d1"/><path d="m24.5 10.9v4.9c0 2.9-2.3 5.2-5.2 5.2-1.5 0-2.7-.6-3.7-1.5-.9-.9-1.5-2.2-1.5-3.7v-4.9c0 1.5.6 2.7 1.5 3.7.9.9 2.2 1.5 3.7 1.5 2.9 0 5.2-2.4 5.2-5.2z" fill="#fff"/><path d="m19.3 43.6c-1 0-1.9-.9-1.9-1.9v-10.6c0-1 .9-1.9 1.9-1.9s1.9.9 1.9 1.9v10.6c0 1.1-.9 1.9-1.9 1.9z" fill="#13a651"/><path d="m28.1 31.1v-25.3l2.1 2.1c2.8 2.8 4.4 6.6 4.4 10.5 0 4-1.6 7.9-4.5 10.7" fill="#fff"/><path d="m30 43.6c-1 0-1.9-.9-1.9-1.9v-10.6c0-1 .9-1.9 1.9-1.9s1.9.9 1.9 1.9v10.6c0 1.1-.8 1.9-1.9 1.9z" fill="#13a651"/><g fill="#212121"><path d="m41 7c-4.5-4.5-10.5-7-17-7s-12.4 2.5-17 7-7 10.6-7 17c0 4.8 1.4 9.4 4.1 13.4.2.3.6.4.9.2.3-.3.4-.7.2-1-2.5-3.7-3.8-8-3.8-12.5 0-6 2.3-11.7 6.6-15.9s10-6.7 16-6.7 11.7 2.3 15.9 6.6 6.6 9.9 6.6 15.9-2.3 11.7-6.6 15.9-9.9 6.6-15.9 6.6c-6.5 0-12.7-2.8-17-7.6-.3-.3-.7-.3-1-.1-.3.3-.3.7-.1 1 4.5 5.1 11.1 8.1 18 8.1 6.4 0 12.4-2.5 17-7s7.1-10.5 7.1-16.9-2.5-12.4-7-17z"/><path d="m33.7 35.3c-.3.3-.3.7-.1 1 .2.2.3.3.5.3s.3-.1.4-.2c3.7-3.2 5.7-7.6 5.7-12.4 0-3.9-1.4-7.5-3.9-10.5-.3-.3-.7-.3-1-.1-.3.3-.3.7 0 .9 2.2 2.7 3.5 6.1 3.5 9.6.1 4.5-1.9 8.6-5.1 11.4z"/><path d="m12.5 13.5c-.3-.3-.8-.3-1 .1-2.4 2.9-3.8 6.5-3.8 10.4 0 5.4 2.7 10.5 7.2 13.5.1.1.3.1.4.1.3 0 .4-.1.6-.3.3-.3.2-.8-.2-1-4.1-2.7-6.6-7.4-6.6-12.3 0-3.5 1.2-6.9 3.5-9.6.3-.3.3-.8-.1-.9z"/><path d="m14.1 5.1c-.4 0-.7.3-.7.7v9.9c0 3 2.3 5.5 5.2 5.9v7c-1.1.3-1.9 1.3-1.9 2.5v10.6c0 1.5 1.2 2.6 2.6 2.6s2.6-1.2 2.6-2.6v-10.6c0-1.2-.8-2.2-1.9-2.5v-7c2.9-.3 5.2-2.8 5.2-5.9v-9.9c0-.3-.3-.7-.7-.7s-.7.3-.7.7v5.1c0 1.6-.9 3-2.1 3.9v-9c0-.4-.3-.7-.7-.7s-.7.3-.7.7v9.4c-.3.1-.6.1-.9.1s-.6 0-.9-.1v-9.4c0-.4-.3-.7-.7-.7-.3 0-.7.3-.7.7v8.8c-1.3-.8-2.1-2.2-2.1-3.9v-5c-.2-.2-.5-.6-.9-.6zm6.4 26v10.6c0 .7-.5 1.2-1.2 1.2s-1.2-.5-1.2-1.2v-10.6c0-.7.5-1.2 1.2-1.2s1.2.6 1.2 1.2zm-1.2-14.3c1.8 0 3.4-.8 4.5-2.1v1c0 2.5-2.1 4.5-4.5 4.5s-4.5-2.1-4.5-4.5v-1c1.1 1.2 2.7 2.1 4.5 2.1z"/><path d="m28.1 18.4c-.4 0-.7.3-.7.7v22.6c0 1.5 1.2 2.6 2.6 2.6s2.6-1.2 2.6-2.6v-10.6c0-.9-.5-1.8-1.3-2.2 2.5-2.8 3.9-6.6 3.9-10.4 0-4.2-1.6-8.1-4.5-11.1l-2.1-2.1c-.2-.2-.5-.3-.8-.2s-.4.3-.4.6v10.5c0 .4.3.7.7.7s.7-.3.7-.7v-8.7l.9.9c2.7 2.7 4.2 6.3 4.2 10s-1.5 7.4-4.2 10c-.3 0-.6.1-.9.3v-9.6c.1-.4-.3-.7-.7-.7zm1.9 11.5c.7 0 1.2.5 1.2 1.2v10.6c0 .7-.5 1.2-1.2 1.2s-1.2-.5-1.2-1.2v-10.6c.1-.6.6-1.2 1.2-1.2z"/></g></svg>