<svg enable-background="new 0 0 48 48" viewBox="0 0 48 48" xmlns="http://www.w3.org/2000/svg"><path d="m0 0h48v48h-48z" fill="none"/><path d="m46.3 20.3h-44.6v-4.9c0-.3.2-.4.4-.4h43.6c.3 0 .4.2.4.4z" fill="#647999"/><path d="m46.3 20.3h-2.9v-5.4h2.4c.3 0 .4.2.4.4z" fill="#4f6784"/><path d="m45.8 47.2h-43.6c-.3 0-.4-.2-.4-.4v-26.5h44.6v26.5c-.1.2-.3.4-.6.4z" fill="#d7dcdd"/><path d="m45.8 47.2h-2.4v-27h2.9v26.5c0 .3-.2.5-.5.5z" fill="#bdbdbd"/><path d="m21.1 34.1h20.4v13h-20.4z" fill="#9fe0fe"/><path d="m38.5 34.1h2.9v13h-2.9z" fill="#7ed0ed"/><path d="m14.5 34.8h-9.2c-.3 0-.4-.2-.4-.4v-8.1c0-.3.2-.4.4-.4h9.2c.3 0 .4.2.4.4v8.1c0 .3-.1.4-.4.4z" fill="#9fe0fe"/><path d="m14.5 34.8h-1.9v-9h1.9c.3 0 .4.2.4.4v8.1c0 .4-.1.5-.4.5z" fill="#7ed0ed"/><path d="m40.2 5.2h-32.4c-.2 0-.4-.2-.4-.4v-3.6c0-.3.2-.4.4-.4h32.3c.3 0 .4.2.4.4v3.6c.2.2-.1.4-.3.4z" fill="#647999"/><path d="m40.2 5.2h-3.9v-4.5h3.9c.3 0 .4.2.4.4v3.6c.1.3-.2.5-.4.5z" fill="#4f6784"/><path d="m9.2 5.2h29.6v9.7h-29.6z" fill="#d7dcdd"/><path d="m36.3 5.2h2.4v9.7h-2.4z" fill="#bdbdbd"/><path d="m11.8 11.3v-2.3c0-.3.2-.4.4-.4h2.4c.2 0 .4.1.4.4v2.3c0 .3-.2.4-.4.4h-2.3c-.3 0-.5-.1-.5-.4z" fill="#9fe0fe"/><path d="m18.9 11.3v-2.3c0-.3.2-.4.4-.4h2.3c.3 0 .4.1.4.4v2.3c0 .3-.2.4-.4.4h-2.3c-.3 0-.4-.1-.4-.4z" fill="#9fe0fe"/><path d="m25.9 11.3v-2.3c0-.3.2-.4.4-.4h2.3c.3 0 .4.1.4.4v2.3c0 .3-.2.4-.4.4h-2.3c-.2 0-.4-.1-.4-.4z" fill="#9fe0fe"/><path d="m33 11.3v-2.3c0-.3.2-.4.4-.4h2.3c.3 0 .4.2.4.4v2.3c0 .3-.2.4-.4.4h-2.3c-.2 0-.4-.1-.4-.4z" fill="#9fe0fe"/><path d="m29 25.6h-4.7l-.8 8.7c0 1.5 1.2 2.6 2.6 2.6 1.5 0 2.6-1.1 2.6-2.6z" fill="#ffc853"/><path d="m39 34.3-.8-8.7h-4.7l.3 8.7c0 1.5 1.2 2.6 2.6 2.6s2.6-1.1 2.6-2.6z" fill="#ffc853"/><path d="m33.8 34.3-.3-8.7h-4.5l-.3 8.7c0 1.4 1.1 2.6 2.6 2.6s2.5-1.1 2.5-2.6z" fill="#f27979"/><path d="m44 34.3-1.9-8.4c-.1-.3-.3-.3-.4-.3h-3.5l.7 8.7c0 1.4 1.1 2.6 2.6 2.6 1.4 0 2.5-1.1 2.5-2.6z" fill="#f27979"/><path d="m44 34.3c0 1.4-1.1 2.6-2.6 2.6-.3 0-.8-.1-1.1-.3 0 0 .1 0 .1-.1 1-.5 1.5-1.7 1.3-2.7l-1.7-7.9c-.1-.3-.3-.3-.4-.3h2.1c.3 0 .4.2.4.3z" fill="#ce5f5f"/><path d="m23.5 34.3.8-8.7h-3.4c-.3 0-.4.2-.4.3l-1.9 8.4c0 1.4 1.1 2.5 2.5 2.5s2.4-1 2.4-2.5z" fill="#f27979"/><g fill="#212121"><path d="m14.6 7.8h-2.3c-.7 0-1.2.5-1.2 1.2v2.3c0 .7.5 1.2 1.2 1.2h2.3c.7 0 1.2-.5 1.2-1.2v-2.3c0-.7-.5-1.2-1.2-1.2zm-.3 3.2h-1.9v-1.8h1.9z"/><path d="m21.6 7.8h-2.3c-.7 0-1.2.5-1.2 1.2v2.3c0 .7.5 1.2 1.2 1.2h2.3c.7 0 1.2-.5 1.2-1.2v-2.3c0-.7-.5-1.2-1.2-1.2zm-.2 3.2h-1.9v-1.8h1.9z"/><path d="m28.7 7.8h-2.3c-.7 0-1.2.5-1.2 1.2v2.3c0 .7.5 1.2 1.2 1.2h2.3c.7 0 1.2-.5 1.2-1.2v-2.3c0-.7-.6-1.2-1.2-1.2zm-.3 3.2h-1.9v-1.8h1.9z"/><path d="m35.7 7.8h-2.3c-.7 0-1.2.5-1.2 1.2v2.3c0 .7.5 1.2 1.2 1.2h2.3c.7 0 1.2-.5 1.2-1.2v-2.3c0-.7-.5-1.2-1.2-1.2zm-.1 3.2h-1.9v-1.8h1.9z"/><path d="m45.8 14.2h-6.3v-8.3h.7c.7 0 1.2-.5 1.2-1.2v-3.5c0-.7-.5-1.2-1.2-1.2h-5.8c-.4 0-.7.3-.7.7s.3.7.7.7h5.6v3.2h-1.2-29.6-1.1v-3.2h21c.4 0 .7-.3.7-.7s-.2-.7-.7-.7h-21.4c-.6 0-1.1.5-1.1 1.2v3.6c0 .7.5 1.2 1.2 1.2h.7v8.2h-6.3c-.7 0-1.2.5-1.2 1.2v4.9 26.5c0 .7.5 1.2 1.2 1.2h6.8c.4 0 .7-.3.7-.7 0-.3-.3-.7-.7-.7h-6.6v-25.6h43.2v25.6h-31.4c-.4 0-.7.3-.7.7s.3.7.7.7h31.7c.7 0 1.2-.5 1.2-1.2v-26.6-4.9c-.1-.6-.6-1.1-1.3-1.1zm-35.9-8.3h28.1v8.2h-28.1zm35.7 13.7h-43.2v-3.9h6.8 29.6 6.8z"/><path d="m15.6 34.4v-8.1c0-.7-.5-1.2-1.2-1.2h-9.1c-.7 0-1.2.5-1.2 1.2v8.1c0 .7.5 1.2 1.2 1.2h9.2c.6 0 1.1-.6 1.1-1.2zm-1.4-.3h-8.6v-7.6h8.6z"/><path d="m29 43.5h-.9c-.4 0-.7-.3-.7-.7v-4.2c0-.4.3-.7.7-.7h1c.4 0 .7.3.7.7 0 .3-.3.7-.7.7h-.3v2.8h.2c.4 0 .7.3.7.7s-.2.7-.7.7z"/><path d="m34.4 43.5h-.9c-.4 0-.7-.3-.7-.7s.3-.7.7-.7h.2v-2.8h-.3c-.4 0-.7-.3-.7-.7 0-.3.3-.7.7-.7h1c.4 0 .7.3.7.7v4.2c-.1.3-.4.7-.7.7z"/><path d="m44.7 34.2c0-.1 0-.1 0 0l-1.9-8.4c-.1-.5-.6-.9-1.1-.9h-8.1-.1-4.4-4.6-.1-3.4c-.5 0-1 .3-1.1.9l-1.9 8.4v.1.1c0 1.5 1.1 2.8 2.5 3.2v9.7c0 .4.3.7.7.7h9.9c.1 0 .2.1.3.1s.2 0 .3-.1h10c.4 0 .7-.3.7-.7v-9.8c1.2-.4 2.3-1.6 2.3-3.3 0 .1 0 .1 0 0zm-3.2-7.9 1.6 7.4h-3.6l-.6-7.4zm-4 0 .6 7.4h-3.7l-.3-7.4zm.5 8.7c-.3.7-.9 1.1-1.7 1.1s-1.5-.5-1.7-1.1zm-8.3-8.7h3.1l.3 7.4h-3.7zm1.6 9.9c-.8 0-1.5-.5-1.7-1.1h3.4c-.4.6-1 1.1-1.7 1.1zm-6.4-9.9h3.3l-.2 7.3h-3.8zm3 8.7c-.3.7-.9 1.1-1.7 1.1s-1.5-.5-1.7-1.1zm-6.8-8.7h2.5l-.7 7.4h-3.4zm-1.7 8.7h3.4c-.3.7-.9 1.1-1.7 1.1-.8.1-1.5-.4-1.7-1.1zm2.4 2.5c.8-.2 1.4-.6 1.9-1.1.6.8 1.5 1.2 2.6 1.2 1 0 2-.5 2.6-1.2.4.6 1.1 1 1.9 1.2v9h-8.9v-9.1zm19 9h-8.8v-9c.8-.2 1.4-.6 1.9-1.2.6.8 1.5 1.2 2.6 1.2 1 0 2-.5 2.6-1.2.4.6 1.1 1 1.9 1.2zm.7-10.3c-.8 0-1.5-.5-1.7-1.1h3.4c-.4.6-1 1.1-1.7 1.1z"/></g></svg>