<svg enable-background="new 0 0 24 24" viewBox="0 0 24 24" xmlns="http://www.w3.org/2000/svg"><path d="m0 0h24v24h-24z" fill="none"/><path d="m3.2 14.4h2.4c.6 0 1.2-.5 1.2-1.2v-2.4c0-.6-.5-1.2-1.2-1.2h-2.4c-.7 0-1.2.6-1.2 1.2v2.4c0 .6.5 1.2 1.2 1.2zm0 5.8h2.4c.6 0 1.2-.5 1.2-1.2v-2.4c0-.6-.5-1.2-1.2-1.2h-2.4c-.6 0-1.2.5-1.2 1.2v2.4c0 .7.5 1.2 1.2 1.2zm0-11.7h2.4c.6 0 1.2-.5 1.2-1.2v-2.4c0-.6-.5-1.2-1.2-1.2h-2.4c-.7.1-1.2.6-1.2 1.2v2.4c0 .6.5 1.2 1.2 1.2zm5.9 5.9h11.8c.6 0 1.2-.5 1.2-1.2v-2.4c0-.6-.5-1.2-1.2-1.2h-11.8c-.6 0-1.2.5-1.2 1.2v2.4c0 .6.5 1.2 1.2 1.2zm0 5.8h11.8c.6 0 1.2-.5 1.2-1.2v-2.4c0-.6-.5-1.2-1.2-1.2h-11.8c-.6 0-1.2.5-1.2 1.2v2.4c0 .7.5 1.2 1.2 1.2zm-1.2-15.3v2.4c0 .6.5 1.2 1.2 1.2h11.8c.6 0 1.2-.5 1.2-1.2v-2.4c0-.6-.5-1.2-1.2-1.2h-11.8c-.7.1-1.2.6-1.2 1.2z"/></svg>