<svg enable-background="new 0 0 96 48" viewBox="0 0 96 48" xmlns="http://www.w3.org/2000/svg"><g fill="#0066b3"><path d="m43.2 35.3h-5.9l3.7-22.6h5.9z"/><path d="m32.4 12.7-5.6 15.5-.7-3.3-2-10.1s-.2-2-2.8-2h-9.3v.3s2.8.6 6.1 2.6l5.1 19.6h6.1l9.3-22.6z"/><path d="m78.6 35.3h5.4l-4.7-22.6h-4.7c-2.2 0-2.7 1.7-2.7 1.7l-8.8 20.9h6.1l1.2-3.4h7.5zm-6.5-8 3.1-8.4 1.7 8.4z"/><path d="m63.6 18.2.8-4.8s-2.6-1-5.3-1c-2.9 0-9.8 1.3-9.8 7.5 0 5.8 8.1 5.9 8.1 9s-7.3 2.5-9.7.6l-.9 5.1s2.6 1.3 6.6 1.3 10.1-2.1 10.1-7.7c0-5.9-8.2-6.4-8.2-9 0-2.8 5.7-2.4 8.3-1z"/></g><path d="m26.1 24.9-2-10.1s-.2-2-2.8-2h-9.3v.3s4.5.9 8.7 4.4c4.1 3.3 5.4 7.4 5.4 7.4z" fill="#faa634"/></svg>